<?xml version="1.0" encoding="UTF-8"?>
<svg width="287px" height="20px" viewBox="0 0 287 20" version="1.1" xmlns="http://www.w3.org/2000/svg" xmlns:xlink="http://www.w3.org/1999/xlink">
    <title>visa icons</title>
    <g id="jenral" stroke="none" stroke-width="1" fill="none" fill-rule="evenodd">
        <g id="Desktop-HD-Copy-3" transform="translate(-51.000000, -2513.000000)">
            <g id="footer" transform="translate(0.000000, 2229.000000)">
                <g id="visa-icons" transform="translate(51.000000, 284.000000)">
                    <g id="mastercard" transform="translate(128.142000, 1.134000)">
                        <path d="M8.058204,0.043092 C8.101296,0.043092 8.101296,0.043092 8.101296,0.129276 C10.212804,0.129276 12.151944,0.904932 13.57398,2.240784 L13.5001709,2.17403397 C14.9392765,0.851748723 16.8547422,0.043092 18.96048,0.043092 L19.002,0.044092 L19.003572,0.043092 C20.123964,0.043092 21.1931843,0.27201825 22.1667941,0.685432125 C24.820992,1.80318075 26.7369013,4.26953644 27.0894619,7.20620928 L27.1145327,7.44862067 C27.1292809,7.61091022 27.1392214,7.77453963 27.1442097,7.9393644 L27.14796,8.18748 C27.14796,12.586056 23.6610547,16.1959272 19.2539938,16.3281177 L19.003572,16.331868 L19.003572,16.331868 C16.9253547,16.331868 15.023202,15.5442103 13.5807253,14.2525062 L13.394,14.410092 L13.3821864,14.4204906 C12.0312311,15.5316724 10.3443794,16.2488567 8.47596206,16.3251143 L8.144388,16.331868 C3.619728,16.331868 1.70732761e-12,12.669048 1.70732761e-12,8.18748 C1.70732761e-12,3.705912 3.619728,0.086184 8.058204,0.043092 Z" id="Combined-Shape" fill="#000000" fill-rule="nonzero"></path>
                        <g id="Group" transform="translate(0.754110, 6.032880)" fill="#FFFFFF" fill-rule="nonzero">
                            <path d="M12.0057611,0.899557714 L12.130398,0.904932 C13.078422,0.904932 13.380066,1.594404 13.380066,2.1546 C13.380066,2.37006 13.25079,2.930256 13.25079,2.930256 L13.25079,2.930256 L11.484018,2.930256 C11.484018,2.930256 11.31165,3.619728 12.259674,3.619728 L12.259674,3.619728 L12.3778775,3.61470977 C12.7728605,3.58233412 13.164606,3.404268 13.164606,3.404268 L13.164606,3.404268 L12.992238,4.223016 C12.992238,4.223016 12.733686,4.352292 12.087306,4.352292 C12.0474251,4.352292 12.0085535,4.35128277 11.9707078,4.34914755 C11.3092269,4.31590921 10.579086,3.98348952 10.579086,2.844072 C10.579086,1.766772 11.225466,0.818748 12.130398,0.904932 L12.0057611,0.899557714 L12.0057611,0.899557714 Z M24.713262,0.129276 L25.618194,0.172368 L24.971814,4.3092 L24.109974,4.3092 L24.153066,4.007556 L24.153066,4.007556 L24.145652,4.01558516 C24.096441,4.06738621 23.8044125,4.352292 23.334318,4.352292 C23.2908156,4.352292 23.2502005,4.34970866 23.2122831,4.34470442 C22.5633591,4.26843664 22.257018,3.5802 22.257018,2.930256 C22.257018,1.809864 22.94649,0.86184 23.722146,0.86184 L23.722146,0.86184 L23.8480549,0.871876454 C24.2559882,0.936627769 24.540894,1.29276 24.540894,1.29276 L24.540894,1.29276 L24.713262,0.129276 Z M19.542222,0.818748 C19.843866,0.818748 20.748798,0.86184 20.705706,1.896048 L20.705706,1.896048 L20.703546,1.906092 L20.705706,1.93914 L20.36097,4.3092 L19.585314,4.3092 L19.589546,4.266092 L19.585314,4.266108 L19.6233738,3.96572803 C19.5676942,3.98988828 19.3066524,4.352292 18.723474,4.352292 C18.42183,4.352292 17.904726,4.179924 17.904726,3.404268 C17.904726,3.39387894 17.904816,3.38356564 17.9049948,3.37332765 L17.904726,3.361176 C17.904726,2.37006 18.723474,2.068416 19.456038,2.068416 L19.456038,2.068416 L19.843866,2.068416 C19.843866,2.068416 19.886958,2.025324 19.886958,1.852956 L19.8867684,1.88405189 C19.8788447,1.63615612 19.6236794,1.594404 19.326762,1.594404 C18.766566,1.594404 18.378738,1.766772 18.378738,1.766772 L18.378738,1.766772 L18.4851048,1.68392952 C18.4163639,1.70695739 18.378738,1.72368 18.378738,1.72368 L18.378738,1.72368 L18.508014,0.991116 C18.508014,0.991116 18.938934,0.818748 19.542222,0.818748 Z M10.406718,0.43092 L10.320534,0.948024 L10.751454,0.948024 L10.622178,1.766772 L10.148166,1.766772 L9.889614,3.274992 C9.846522,3.361176 9.889614,3.533544 10.191258,3.533544 L10.191258,3.533544 L10.2552227,3.52681087 C10.3178407,3.51469125 10.374399,3.490452 10.406718,3.490452 L10.406718,3.490452 L10.277442,4.223016 C10.191258,4.266108 9.975798,4.352292 9.717246,4.352292 C9.7046586,4.352292 9.69216199,4.35206503 9.67976353,4.35160816 L9.631062,4.352292 C9.243234,4.352292 8.94159,4.136832 8.94159,3.619728 L8.94159,3.619728 L9.04999331,3.38373197 C9.08298562,3.12529219 9.14897025,2.71105537 9.2222865,2.27360175 L9.286326,1.896048 C9.415602,1.141938 9.544878,0.43092 9.544878,0.43092 L9.544878,0.43092 L10.406718,0.43092 Z M5.537322,0.818748 C5.838966,0.818748 6.700806,0.86184 6.700806,1.896048 L6.700806,1.896048 L6.698546,1.906092 L6.700806,1.93914 L6.35607,4.3092 L5.580414,4.3092 L5.584546,4.266092 L5.580414,4.266108 L5.61847381,3.96572803 C5.56279416,3.98988828 5.3017524,4.352292 4.718574,4.352292 C4.41693,4.352292 3.899826,4.179924 3.899826,3.404268 C3.899826,3.39387894 3.89991596,3.38356564 3.90009484,3.37332765 L3.899826,3.361176 C3.899826,2.37006 4.718574,2.068416 5.451138,2.068416 L5.451138,2.068416 L5.838966,2.068416 C5.838966,2.068416 5.882058,2.025324 5.882058,1.852956 L5.88186838,1.88405189 C5.87394465,1.63615612 5.61877938,1.594404 5.321862,1.594404 C4.761666,1.594404 4.373838,1.766772 4.373838,1.766772 L4.373838,1.766772 L4.48020479,1.68392952 C4.41146388,1.70695739 4.373838,1.72368 4.373838,1.72368 L4.373838,1.72368 L4.503114,0.991116 C4.503114,0.991116 4.934034,0.818748 5.537322,0.818748 Z M17.172162,0.043092 C17.567172,0.043092 17.992107,0.192717 18.1227795,0.242592 L18.163278,0.258552 L18.034002,1.163484 C18.034002,1.163484 17.689266,0.904932 17.258346,0.904932 L17.258346,0.904932 L17.1528658,0.910729641 C16.5960115,0.972477592 16.137954,1.52596376 16.137954,2.499336 C16.137954,3.01644 16.396506,3.490452 16.999794,3.490452 L16.999794,3.490452 L17.0936053,3.48441912 C17.3833128,3.4495146 17.732358,3.274992 17.732358,3.274992 L17.732358,3.274992 L17.55999,4.223016 C17.55999,4.223016 17.085978,4.352292 16.741242,4.352292 C16.6904669,4.352292 16.641977,4.35052624 16.5956701,4.34704063 C15.658586,4.28117555 15.18993,3.56802045 15.18993,2.542428 C15.18993,0.984809854 16.0867102,0.129019653 17.0272357,0.0492343341 C17.074335,0.0452373956 17.1227122,0.043092 17.172162,0.043092 Z M15.40539,0.904932 C15.319206,1.120392 15.18993,1.335852 15.103746,1.896048 C15.0512862,1.87731235 15.0030622,1.86900349 14.9585642,1.87038476 L14.8945477,1.87963217 C14.4855509,1.98850437 14.4236418,3.02955496 14.198814,4.266108 L14.198814,4.266108 L14.198814,4.3092 L13.25079,4.3092 L13.810986,0.948024 L14.629734,0.948024 L14.54355,1.422036 L14.54355,1.422036 L14.5523839,1.40755709 C14.6047406,1.32378624 14.8839768,0.904932 15.233022,0.904932 L15.233022,0.904932 Z M21.783006,1.422036 L21.7918399,1.40755709 C21.8441966,1.32378624 22.1234328,0.904932 22.472478,0.904932 L22.472478,0.904932 L22.644846,0.904932 C22.558662,1.120392 22.429386,1.335852 22.343202,1.896048 C22.2907422,1.87731235 22.2425182,1.86900349 22.1980202,1.87038476 L22.1340037,1.87963217 C21.7250069,1.98850437 21.6630978,3.02955496 21.43827,4.266108 L21.43827,4.266108 L21.43827,4.3092 L20.490246,4.3092 L21.050442,0.948024 L21.86919,0.948024 L21.783006,1.422036 L21.783006,1.422036 Z M8.209026,0.775656 C8.72613,0.775656 9.027774,0.86184 9.027774,0.86184 L9.027774,0.86184 L8.898498,1.637496 C8.898498,1.637496 8.88393013,1.63617165 8.85920563,1.63398729 C8.855406,1.637496 8.381394,1.594404 8.252118,1.594404 L8.28051364,1.59447335 C7.9879739,1.59725768 7.821198,1.68411188 7.821198,1.896048 C7.821198,2.326968 8.855406,2.111508 8.855406,3.188808 C8.855406,4.241484 7.97353457,4.306464 7.64598233,4.30929306 L7.519554,4.3092 C7.27477901,4.3092 7.08773658,4.29957791 6.94556642,4.28354879 C6.6774329,4.25831697 6.57153,4.223016 6.57153,4.223016 L6.57153,4.223016 L6.59822754,4.19999737 C6.56066746,4.17983441 6.5391886,4.15833321 6.528438,4.136832 L6.528438,4.136832 L6.657714,3.361176 C6.657714,3.361176 7.045542,3.490452 7.43337,3.490452 C7.64883,3.490452 7.950474,3.44736 7.950474,3.188808 C7.950474,2.80098 6.873174,2.887164 6.873174,1.896048 C6.873174,1.034208 7.519554,0.775656 8.165934,0.775656 L8.165934,0.775656 Z M1.960686,0.129276 L2.003778,2.671704 L2.865618,0.129276 L4.287654,0.129276 L3.598182,4.266108 L2.69325,4.266108 L3.167262,1.163484 L2.04687,4.266108 L1.443582,4.266108 L1.357398,1.163484 L0.840294,4.266108 L0.021546,4.266108 L0.711018,0.129276 L1.960686,0.129276 Z M5.537322,2.714796 L5.39716022,2.7199741 C4.87181833,2.7606928 4.761666,3.03301385 4.761666,3.2319 C4.761666,3.361176 4.84785,3.576636 5.106402,3.576636 C5.623506,3.576636 5.70969,2.887164 5.70969,2.757888 C5.70969,2.757888 5.666598,2.757888 5.537322,2.714796 L5.537322,2.714796 Z M19.5475613,2.71514706 C18.9338704,2.72669545 18.809658,3.02070185 18.809658,3.2319 C18.809658,3.361176 18.895842,3.576636 19.154394,3.576636 L19.1342605,3.57618695 C19.226109,3.57260971 19.3177159,3.54785445 19.4061816,3.50892864 C19.7014584,3.33217177 19.757682,2.86230323 19.757682,2.757888 C19.71459,2.757888 19.71459,2.757888 19.585314,2.714796 L19.633937,2.73129419 C19.5991638,2.7266522 19.5678378,2.72119995 19.542222,2.714796 Z M23.851422,1.680588 L23.7697137,1.6871209 C23.422041,1.74346714 23.16195,2.160756 23.16195,2.80098 C23.16195,3.2319 23.334318,3.490452 23.635962,3.490452 C24.109974,3.490452 24.325434,2.887164 24.325434,2.413152 C24.325434,1.94820918 24.1860863,1.72712491 23.9387136,1.68725344 C23.9092689,1.68254229 23.88015,1.680588 23.851422,1.680588 L23.851422,1.680588 Z M12.087306,1.594404 L11.9767082,1.60545131 C11.5995285,1.684179 11.52711,2.158191 11.52711,2.197692 L11.52711,2.197692 L12.475134,2.197692 C12.475134,2.15807647 12.5479731,1.68142651 12.1914306,1.60477648 L12.087306,1.594404 L12.087306,1.594404 Z" id="Combined-Shape"></path>
                        </g>
                        <g id="Group" transform="translate(0.754110, 6.032880)"></g>
                    </g>
                    <g id="visa" transform="translate(70.308000, 3.402000)">
                        <path d="M25.1571096,0.0452466 L25.4536564,0.05013435 C26.5220487,0.0854658 27.3792204,0.3066714 27.9322344,0.527877 L27.9322344,0.527877 L27.449604,2.8807002 L27.14796,2.7600426 C26.6050008,2.5187274 25.8810552,2.337741 24.8554656,2.337741 L24.8554656,2.337741 L24.6494046,2.34265277 C23.5868908,2.39452105 23.1059304,2.84876142 23.1059304,3.3030018 C23.1059304,3.845961 23.7695472,4.147605 24.8554656,4.6905642 C26.6653296,5.4748386 27.449604,6.4400994 27.449604,7.7070042 C27.449604,8.6197566 27.1148836,9.40818429 26.5101732,10.0265953 L26.544672,10.0598274 C25.63974,11.0250882 24.0711912,11.5680474 22.1406696,11.5680474 C20.7531072,11.5680474 19.4258736,11.2664034 18.701928,10.9647594 L18.701928,10.9647594 L18.711,10.9082466 L18.701928,10.9044306 L19.1242296,8.4309498 L19.5465312,8.6119362 C20.5721208,9.0342378 21.2357376,9.2152242 22.4423136,9.2152242 L22.4423136,9.2152242 L22.5923927,9.2114667 C23.3971369,9.17138666 24.2521776,8.81066636 24.2521776,8.1293058 C24.2521776,8.02005811 24.2336307,7.91699273 24.1909393,7.81661109 C24.1376942,7.72460075 24.0555363,7.63102046 23.9505336,7.5260178 L23.9505336,7.5260178 L24.1282869,7.69804299 C23.93873,7.399608 23.5085986,7.11297983 22.6836288,6.7417434 C21.4770528,6.1987842 19.9688328,5.354181 19.9688328,3.7253034 C19.9688328,1.5534666 22.1406696,0.0452466 25.1571096,0.0452466 L25.1571096,0.0452466 Z M5.6105784,0.4072194 C6.2741952,0.4072194 6.8171544,0.5882058 6.9981408,1.3121514 L6.9981408,1.3121514 L7.96619041,5.88022587 C8.03513486,6.04763776 8.09479457,6.21445915 8.144388,6.3797706 L8.144388,6.3797706 L8.3857032,7.8879906 L9.350964,5.5954962 L9.364,5.6092466 L11.462472,0.4675482 L14.7202272,0.4675482 L10.307,10.2722466 L9.8939232,11.2664034 L9.86,11.2662466 L9.8335944,11.3267322 L6.5758392,11.3267322 L3.94100167,1.95375788 C3.3444976,1.60883565 2.7045049,1.30111525 2.03114514,1.03788426 L1.925,0.9972466 L6.86396717e-12,0.4072194 Z M18.8829144,0.4072194 L17.0127216,11.2664034 L13.9359528,11.2664034 L15.8664744,0.4072194 L18.8829144,0.4072194 Z M27.0273024,11.2664034 L31.5519624,1.1914938 C31.8536064,0.4675482 32.3965656,0.4072194 33.1205112,0.4072194 L33.1205112,0.4072194 L35.4733344,0.4072194 L36.979,6.8602466 L36.9815544,6.862401 L38.007144,11.2664034 L35.1113616,11.2664034 L34.7493888,9.4565394 L30.8883456,9.4565394 L30.2850576,11.2664034 L27.0273024,11.2664034 Z M33.3618264,3.3633306 C33.18084,3.7856322 32.9395248,4.449249 32.9395248,4.449249 C32.9395248,4.449249 32.9333471,4.46585149 32.9218567,4.49670894 L32.8723118,4.62969871 C32.6491744,5.22840752 31.9356536,7.13991348 31.7329488,7.6466754 L31.7329488,7.6466754 L34.2550391,7.64915744 C34.1115357,6.94817337 33.5428128,4.3889202 33.5428128,4.3889202 L33.5428128,4.3889202 Z" id="Combined-Shape" fill="#000000" fill-rule="nonzero"></path>
                        <g id="Group" transform="translate(3.921372, 1.583631)"></g>
                    </g>
                    <g id="american-express" transform="translate(175.203000, 0.567000)" fill-rule="nonzero">
                        <path d="M24.820992,15.672178 C24.820992,16.4825446 24.1641083,17.1394767 23.3537902,17.1394767 L1.4672018,17.1394767 C0.656883675,17.1394767 0,16.4825446 0,15.672178 L0,1.48911408 C0,0.678795957 0.656883675,0.0218638035 1.4672018,0.0218638035 L23.3537902,0.0218638035 C24.1641568,0.0218638035 24.820992,0.678795957 24.820992,1.48911408 L24.820992,15.672178 L24.820992,15.672178 Z" id="Path" fill="#000000"></path>
                        <path d="M1.04311188,15.672178 L1.04311188,1.48911408 C1.04311188,0.678795957 1.70009252,0.0218638035 2.51041064,0.0218638035 L1.46715332,0.0218638035 C0.656883675,0.0218638035 0,0.678747479 0,1.48911408 L0,15.6722264 C0,16.482593 0.656883675,17.1395252 1.4672018,17.1395252 L2.51045912,17.1395252 C1.700141,17.1395252 1.04311188,16.4825446 1.04311188,15.672178 Z" id="Path" fill="#000000" opacity="0.15"></path>
                        <g id="Group" transform="translate(1.745226, 5.041764)" fill="#FFFFFF">
                            <path d="M7.76979463,3.95351863 L8.20804027,4.45919787 L8.68007542,3.95351863 L10.7023076,3.95351863 C10.9046568,3.95351863 11.3093554,3.98730815 11.4778666,4.15572246 L11.4778666,4.15572246 L11.4778666,3.95356711 L13.2981858,3.95356711 C13.4666001,3.95356711 13.837703,3.98735662 14.0398099,4.15577093 L14.0398099,4.15577093 L14.0398099,3.95361559 L16.8038601,3.95361559 L16.8038601,4.15581941 C16.9388727,4.02109766 17.2420572,3.95361559 17.4781475,3.95361559 L17.4781475,3.95361559 L19.0286839,3.95361559 L19.0286839,4.15581941 C19.0286839,4.15581941 19.2837777,3.95361559 19.4939805,3.95361559 L19.4939805,3.95361559 L21.1171861,3.95361559 L21.1171861,4.05488718 L21.1187374,4.05488718 L21.1187374,5.57173096 C21.2198151,5.74024223 21.2871517,5.97628404 21.2871517,6.2122289 C21.2871517,6.23423814 21.2862791,6.25581108 21.2850187,6.2776264 L21.2850187,6.2776264 C21.2859398,6.29120038 21.284243,6.30283522 21.2828856,6.31447006 C21.2537985,6.70758222 21.0581878,7.03718754 20.7478284,7.22339346 C20.5455761,7.35830912 20.2419553,7.39200168 19.9387707,7.39200168 L19.9387707,7.39200168 L18.4891666,7.39200168 L18.4891666,7.18960394 C18.3206554,7.32442265 18.0174708,7.39200168 17.71385,7.39200168 L17.71385,7.39200168 L13.1295776,7.39200168 L13.1295776,6.61663655 C13.1295776,6.5155104 13.1295776,6.5155104 13.028306,6.5155104 L13.028306,6.5155104 L12.9610663,6.5155104 L12.9610663,7.39200168 L11.4441256,7.39200168 L11.4441256,6.48176936 C11.2081807,6.58304095 10.9046568,6.58304095 10.6689059,6.58304095 L10.6689059,6.58304095 L10.5002492,6.58304095 L10.5002492,7.35830912 L8.61239944,7.35830912 L8.18990931,6.87076085 L7.70250647,7.35830912 L4.73610706,7.35830912 L4.73610706,3.95351863 L7.76979463,3.95351863 Z M20.7479739,4.4593433 L19.6354892,4.4593433 C19.572952,4.4593433 19.5158443,4.46414267 19.4617908,4.47160836 C19.0097288,4.55756074 18.8264316,4.84697739 18.8264316,5.16737179 C18.8264316,5.77800128 19.2609163,5.86287623 19.7154046,5.89266093 L19.9102016,5.90342513 L19.9102016,5.90342513 L20.0062528,5.90885045 C20.1074274,5.90885045 20.1747641,5.94259149 20.2085051,5.97628404 C20.2421007,6.01007356 20.2759387,6.0771678 20.2759387,6.14474683 C20.2759387,6.2122289 20.2421007,6.27951706 20.2085051,6.31330658 C20.1411685,6.38078865 20.0735895,6.38078865 19.9724148,6.38078865 L19.9724148,6.38078865 L18.8940106,6.38078865 L18.8940106,6.88637092 L19.9724633,6.88637092 C20.3096797,6.88637092 20.54577,6.78524477 20.6804433,6.65023215 C20.8152135,6.51555888 20.8826471,6.34704761 20.8826471,6.14474683 C20.8826471,6.1010677 20.8782356,6.0616062 20.8722243,6.02379297 C20.8030939,5.66287054 20.493995,5.52460986 20.4006254,5.49082035 C20.2986751,5.45499473 20.1872715,5.4368153 20.0399454,5.4368153 L20.0399454,5.4368153 L19.7366639,5.4368153 C19.6691818,5.4368153 19.6017482,5.4368153 19.5344116,5.40302578 C19.43314,5.36957562 19.399399,5.33583458 19.399399,5.23465995 C19.399399,5.16732331 19.43314,5.09984124 19.4670749,5.06605173 C19.5344116,5.03231069 19.6017482,5.03231069 19.7029228,5.03231069 L19.7029228,5.03231069 L20.7479739,5.03231069 L20.7479739,4.4593433 Z M18.5566972,4.4593433 L17.444358,4.4593433 C16.8375526,4.4593433 16.6353003,4.83020383 16.6353003,5.16732331 C16.6353003,5.90885045 17.2757498,5.87510941 17.8151216,5.90885045 C17.9161992,5.90885045 17.9837298,5.94259149 18.0175678,5.97628404 C18.0513088,6.01007356 18.0848075,6.0771678 18.0848075,6.14474683 C18.0848075,6.2122289 18.0513088,6.27951706 18.0175678,6.31330658 C17.9499888,6.38078865 17.8824097,6.38078865 17.7814775,6.38078865 L17.7814775,6.38078865 L16.7027339,6.38078865 L16.7027339,6.88637092 L17.7814775,6.88637092 C18.3544934,6.88637092 18.6578718,6.65023215 18.6578718,6.14474683 C18.6578718,5.90885045 18.5904382,5.74029071 18.4892636,5.63911608 C18.3544449,5.50424889 18.1522411,5.4368153 17.8488141,5.4368153 L17.8488141,5.4368153 L17.5453872,5.4368153 C17.4780506,5.4368153 17.4107139,5.4368153 17.3431349,5.40302578 C17.2757013,5.36957562 17.2084616,5.33583458 17.2084616,5.23465995 C17.2084616,5.16732331 17.2084616,5.09984124 17.2757013,5.06605173 C17.3431834,5.03231069 17.4107139,5.03231069 17.5117916,5.03231069 L17.5117916,5.03231069 L18.5566972,5.03231069 L18.5566972,4.4593433 Z M16.3658083,4.49298738 L14.478104,4.49298738 L14.478104,6.88632245 L16.3658083,6.88632245 L16.3658083,6.38074017 L15.0509745,6.38074017 L15.0509745,5.90875349 L16.3319703,5.90875349 L16.3319703,5.43671834 L15.0509745,5.43671834 L15.0509745,4.9984727 L16.3658083,4.9984727 L16.3658083,4.49298738 Z M13.1634156,4.49303586 L11.8825651,4.49303586 L11.8825651,6.88637092 L12.455581,6.88637092 L12.455581,6.01002508 L13.1577485,6.01049213 C13.3075179,6.01282741 13.4106155,6.02683904 13.4666486,6.11090884 C13.5679202,6.21218043 13.5679202,6.44797985 13.5679202,6.58304095 L13.5679202,6.58304095 L13.5679202,6.88632245 L14.1408876,6.88632245 L14.1408876,6.41452968 C14.1408876,6.21218043 14.1071465,6.07711932 14.0398099,5.97623557 C14.0061173,5.90880197 13.9050397,5.84117446 13.7364315,5.77403174 C13.9050397,5.70650119 14.1408876,5.50424889 14.1408876,5.1335338 C14.1408876,4.8638479 14.0061173,4.69528816 13.837703,4.59406505 C13.6688524,4.49303586 13.4329076,4.49303586 13.1634156,4.49303586 L13.1634156,4.49303586 Z M7.50020569,4.52677689 L5.30912293,4.52677689 L5.30912293,6.88637092 L7.46646466,6.88637092 L8.20804027,6.11090884 L8.2395513,6.14717076 L8.24178131,6.14469835 L8.88664231,6.88637092 L9.99461843,6.88637092 L9.99461843,6.01002508 L10.6689544,6.01002508 C11.1743912,6.01002508 11.6463294,5.87506094 11.6463294,5.20091892 C11.6463294,5.11268805 11.636052,5.03502549 11.6183573,4.96516797 C11.4712251,4.61238993 11.0829608,4.52682537 10.7362425,4.52682537 L10.7362425,4.52682537 L8.94971284,4.52682537 L8.24173283,5.30204507 L8.2246684,5.31973972 L8.09881821,5.18244861 L7.50020569,4.52677689 Z M9.42169952,4.76257632 L9.42169952,6.68397319 L8.54520824,5.70650119 L9.42169952,4.76257632 Z M7.23061675,4.9984727 L7.83732518,5.70650119 L7.19687572,6.41457816 L5.81480216,6.41457816 L5.81480216,5.90880197 L7.06210549,5.90880197 L7.06210549,5.43676682 L5.81480216,5.43676682 L5.81480216,4.9984727 L7.23061675,4.9984727 Z M10.7024045,4.9984727 C10.9047538,4.9984727 11.0397179,5.09974429 11.073459,5.30199659 C11.073459,5.50420041 10.9385433,5.60527808 10.7363395,5.60522962 L10.7363395,5.60522962 L9.99466691,5.60522962 L9.99466691,4.9984727 Z M13.1634156,5.03231069 C13.2643963,5.03231069 13.3656679,5.03231069 13.4329076,5.06605173 C13.5003412,5.09979276 13.5679202,5.16732331 13.5341792,5.30204507 C13.5341792,5.4029773 13.5003412,5.50420041 13.4329076,5.53798993 C13.3656194,5.57173096 13.2643478,5.57173096 13.1633671,5.57173096 L13.1633671,5.57173096 L12.4890796,5.57173096 L12.4890796,5.03231069 Z M2.98322145,0.009598743 L3.1517812,0.414103347 L3.1517812,0.009598743 L4.87092577,0.009598743 L5.24164086,0.852348987 L5.61259834,0.009598743 L11.0397664,0.009598743 C11.3094523,0.009598743 11.5117046,0.0771292935 11.6802159,0.211899523 L11.6802159,0.211899523 L11.6802159,0.009598743 L13.1970597,0.009598743 L13.1970597,0.211899523 C13.4666001,0.077080815 13.770124,0.009598743 14.1408876,0.009598743 L14.1408876,0.009598743 L16.2982778,0.009598743 L16.500627,0.414103347 L16.500627,0.009598743 L18.0848075,0.009598743 L18.2869143,0.414103347 L18.2870113,0.009598743 L19.803952,0.009598743 L19.803952,3.31306917 L18.2196747,3.31306917 L17.9161508,2.80753537 L17.9161508,3.31306917 L15.9611098,3.31306917 L15.7588575,2.77384281 L15.2870648,2.77384281 L15.0848125,3.31306917 L14.0734055,3.31306917 C13.6688524,3.31306917 13.3656679,3.21208845 13.1634156,3.11081687 L13.1634156,3.11081687 L13.1634156,3.31306917 L10.7363395,3.31306917 L10.7363395,2.57149355 C10.7363395,2.47031892 10.7363395,2.47031892 10.6690028,2.47031892 L10.6690028,2.47031892 L10.6014238,2.47031892 L10.6014238,3.3468102 L5.91578288,3.3468102 L5.91578288,2.9423056 L5.74732009,3.34676173 L4.76984809,3.34676173 L4.60119139,2.9423056 L4.60119139,3.3468102 L2.6462474,3.3468102 L2.4439951,2.80748689 L2.00579794,2.80748689 L1.80344868,3.31302069 L1.7912321,3.3468102 L0.036261918,3.3468102 L0.050514597,3.31302069 L0.82573429,1.59387612 L1.50002175,0.009598743 L2.98322145,0.009598743 Z M14.6802594,0.481633897 L14.1407906,0.481633897 C13.7700755,0.481633897 13.4665516,0.548873577 13.2981373,0.751271314 C13.0621925,1.02086025 12.9948558,1.35817366 12.9948558,1.69524467 C12.9948558,2.13339335 13.095885,2.40307924 13.2981373,2.60533155 C13.5002927,2.80758385 13.8376061,2.87492049 14.1070981,2.87492049 L14.1070981,2.87492049 L14.7475475,2.87492049 L14.9497998,2.33569413 L16.129718,2.33569413 L16.3319703,2.84132488 L16.9050832,2.84132488 L16.9050832,2.84273076 L17.4745601,2.84273076 L17.4745601,2.53431054 L17.478099,2.537801 L17.478099,1.05460129 L18.5567457,2.84127641 L19.2983698,2.84137336 L19.2983698,0.515520369 L18.725063,0.515520369 L18.725063,2.16718286 L17.747688,0.515520369 L16.9050347,0.515520369 L16.9050347,2.77393977 L15.9610613,0.51547189 L15.1182626,0.51547189 L14.3430429,2.36943517 L14.1070981,2.36943517 C13.9385868,2.36943517 13.803865,2.33569413 13.7024965,2.23442254 C13.5678232,2.09960383 13.5340822,1.93109257 13.5340822,1.66135819 C13.5340822,1.42541334 13.6015643,1.22320951 13.7024965,1.12213184 C13.8376061,1.02081177 13.9385383,0.987216174 14.1407906,0.987216174 L14.1407906,0.987216174 L14.6802594,0.987216174 L14.6802594,0.481633897 Z M9.18575466,0.481633897 L7.29805035,0.481633897 L7.29805035,2.87487201 L9.18575466,2.87487201 L9.18575466,2.36938669 L7.87106622,2.36938669 L7.87106622,1.89730305 L9.15201362,1.89730305 L9.15201362,1.42541334 L7.87106622,1.42541334 L7.87106622,0.987216174 L9.18575466,0.987216174 L9.18575466,0.481633897 Z M10.9810141,0.482102074 L9.55646975,0.481633897 L9.55646975,2.84132488 L10.1293887,2.84132488 L10.1293887,1.99857464 L10.7363395,1.99857464 C10.895252,1.99857464 10.990997,1.9991079 11.0415116,2.03183089 C11.0766101,2.04676227 11.1088483,2.06775346 11.1406986,2.09960383 C11.2419702,2.23442254 11.2419702,2.43672332 11.2419702,2.57154203 L11.2419702,2.57154203 L11.2419702,2.84132488 L11.747504,2.84132488 L11.747504,2.36938669 L11.747504,2.36938669 L11.7462436,2.31135792 C11.7462436,2.31033987 11.7463405,2.30951574 11.7463405,2.30844921 C11.7463405,2.30655855 11.7460012,2.30495876 11.7460012,2.30311658 L11.7454679,2.29356631 C11.7428501,2.10896019 11.6906388,1.98306152 11.6260654,1.89841806 C11.6167575,1.8854743 11.6058499,1.8719488 11.5931,1.85847178 C11.5920335,1.8577446 11.5909185,1.85721133 11.5900459,1.85643568 C11.4892106,1.75147973 11.3767405,1.72884027 11.3767405,1.72884027 C11.5422945,1.6624732 11.7725674,1.46565049 11.7803725,1.10690959 C11.7765911,0.84643461 11.6768224,0.681947059 11.5116561,0.582760048 C11.3430479,0.481633897 11.1406986,0.481633897 10.8375141,0.481633897 Z M2.67979452,0.481585419 L1.83714124,0.481585419 L0.839938491,2.84127641 L1.4324912,2.84127641 L1.66848453,2.33564565 L2.81471019,2.33564565 L3.05065505,2.84127641 L4.19668679,2.84127641 L4.19668679,0.987216174 L5.00564752,2.84127641 L5.50245519,2.84127641 L6.2866434,1.06361829 L6.32038444,0.987216174 L6.32038444,2.84127641 L6.85975623,2.84127641 L6.85975623,0.481633897 L5.94942696,0.481633897 L5.27528493,2.09960383 L5.26447423,2.13455683 L4.95905968,1.44102341 L4.5337578,0.515374933 L4.53259431,0.515374933 L4.51669337,0.481585419 L3.62362244,0.481585419 L3.62362244,2.7400533 L2.67979452,0.481585419 Z M12.7251699,0.481585419 L12.1520571,0.481585419 L12.1520571,2.84127641 L12.7251699,2.84127641 L12.7251699,0.481585419 Z M15.5566537,0.886090023 L15.9275142,1.82996642 L15.1521006,1.82996642 L15.5566537,0.886090023 Z M2.24169432,0.886090023 L2.61240941,1.82996642 L1.87078531,1.82996642 L2.24169432,0.886090023 Z M10.8036276,0.987216174 C10.9047053,0.987216174 11.0058315,0.987216174 11.0734105,1.02081177 C11.11612,1.04233623 11.1589266,1.07782249 11.1757001,1.13556038 L11.1757001,1.13556038 C11.1796269,1.15306112 11.1816145,1.16314465 11.1823902,1.17405231 C11.2012483,1.29287312 11.1662468,1.3799405 11.1357054,1.42827357 C11.1281427,1.4419445 11.1192227,1.45387021 11.1093815,1.46439005 C11.1048246,1.46962573 11.1013826,1.47321314 11.1013341,1.47326161 L11.1013341,1.47326161 C11.0925595,1.4807273 11.0835425,1.48770821 11.0734105,1.49284693 C11.0058799,1.52663644 10.9047053,1.52663644 10.8036276,1.52663644 L10.8036276,1.52663644 L10.1293402,1.52663644 L10.1293402,0.987216174 Z" id="Combined-Shape"></path>
                        </g>
                    </g>
                    <g id="diners-club" transform="translate(219.996000, 0.000000)" fill-rule="nonzero">
                        <path d="M9.61486848,5.80608 C9.61486848,7.24598784 10.4973926,8.45365248 11.7515059,8.91813888 L11.7515059,2.69402112 C10.4973926,3.15850752 9.61486848,4.36617216 9.61486848,5.80608 Z" id="Path" fill="#000000"></path>
                        <path d="M14.1203866,2.69402112 L14.1203866,8.91813888 C15.3744998,8.45365248 16.257024,7.1995392 16.257024,5.80608 C16.257024,4.36617216 15.3744998,3.15850752 14.1203866,2.69402112 Z" id="Path" fill="#000000"></path>
                        <g id="Group" transform="translate(7.141478, 0.000000)">
                            <path d="M6.97890816,8.91813888 C8.23302144,8.45365248 9.1155456,7.1995392 9.1155456,5.80608" id="Path" fill="#000000"></path>
                            <path d="M8.51171328,0.04644864 L5.81769216,0.04644864 C2.612736,0.04644864 0.01161216,2.41532928 0.01161216,5.85252864 C0.01161216,9.01103616 2.612736,11.5657114 5.81769216,11.5657114 L8.51171328,11.5657114 C11.6702208,11.5657114 14.5500365,9.01103616 14.5500365,5.85252864 C14.5035878,2.41532928 11.6237722,0.04644864 8.51171328,0.04644864 Z M5.81769216,11.0547763 C2.89142784,11.0547763 0.56899584,8.68589568 0.56899584,5.80608 C0.56899584,2.87981568 2.93787648,0.51093504 5.81769216,0.51093504 C8.74395648,0.51093504 11.1128371,2.87981568 11.1128371,5.80608 C11.0663885,8.73234432 8.69750784,11.0547763 5.81769216,11.0547763 Z" id="Shape" fill="#474747"></path>
                        </g>
                        <g id="Group" transform="translate(0.000000, 11.612160)" fill="#000000">
                            <path d="M10.2187008,1.8579456 C10.7296358,1.8579456 11.2405709,2.18308608 11.2405709,2.83336704 L11.2405709,2.92626432 L11.2405709,2.92626432 L9.47552256,2.92626432 L9.47552256,3.29785344 L9.47552256,3.29785344 C9.5219712,3.85523712 9.89356032,4.36617216 10.3580467,4.36617216 C10.6831872,4.36617216 10.961879,4.1803776 11.1941222,3.9481344 L11.2870195,4.04103168 C11.0083277,4.4126208 10.6367386,4.73776128 10.1722522,4.73776128 C9.19683072,4.73776128 9.01103616,3.80878848 9.01103616,3.39075072 C9.01103616,2.18308608 9.80066304,1.8579456 10.2187008,1.8579456 Z M1.81149696,0.37158912 C3.39075072,0.37158912 4.22682624,1.43990784 4.22682624,2.50822656 C4.22682624,3.11205888 3.85523712,4.644864 1.71859968,4.644864 L-4.29330925e-14,4.644864 L-4.29330925e-14,4.644864 L-4.29330925e-14,4.50551808 L0.184259068,4.48199713 C0.433008809,4.44525001 0.55738368,4.38306257 0.55738368,4.04103168 L0.55738368,1.02187008 L0.60383232,1.02187008 C0.60383232,0.4644864 0.32514048,0.51093504 0.04644864,0.51093504 L0.04644864,0.37158912 L1.81149696,0.37158912 L1.81149696,0.37158912 Z M6.82795008,1.90439424 L6.82795008,2.322432 C7.15309056,2.0901888 7.47823104,1.8579456 7.8962688,1.8579456 C8.40720384,1.8579456 8.5929984,2.22953472 8.5929984,2.69402112 L8.5929984,4.27327488 C8.5929984,4.43584512 8.69968512,4.4561664 8.85082464,4.45870656 L9.01103616,4.45906944 L9.01103616,4.59841536 L7.71047424,4.59841536 L7.71047424,4.59841536 L7.71047424,4.45906944 L7.80337152,4.45906944 C7.98916608,4.45906944 8.08206336,4.45906944 8.08206336,4.27327488 L8.08206336,2.69402112 C8.08206336,2.36888064 7.84982016,2.18308608 7.52467968,2.18308608 C7.33888512,2.18308608 7.01374464,2.322432 6.82795008,2.46177792 L6.82795008,4.27327488 C6.82795008,4.43584512 6.9346368,4.4561664 7.08577632,4.45870656 L7.24598784,4.45906944 L7.24598784,4.59841536 L5.94542592,4.59841536 L5.94542592,4.59841536 L5.94542592,4.45906944 L6.08477184,4.45906944 C6.2705664,4.45906944 6.36346368,4.45906944 6.36346368,4.27327488 L6.36346368,2.64757248 C6.36346368,2.41532928 6.31701504,2.36888064 5.99187456,2.22953472 L5.99187456,2.13663744 C6.2705664,2.04374016 6.5028096,1.95084288 6.78150144,1.8579456 C6.78150144,1.8579456 6.82795008,1.8579456 6.82795008,1.90439424 Z M5.3415936,1.81149696 C5.38804224,1.81149696 5.38804224,1.8579456 5.38804224,1.90439424 L5.38804224,4.22682624 C5.38804224,4.38939648 5.49472896,4.40971776 5.64586848,4.41225792 L5.80608,4.4126208 L5.80608,4.55196672 L4.50551808,4.55196672 L4.50551808,4.55196672 L4.50551808,4.45906944 L4.50551808,4.45906944 L4.644864,4.45906944 C4.83065856,4.45906944 4.92355584,4.45906944 4.92355584,4.27327488 L4.92355584,2.60112384 C4.92355584,2.322432 4.83065856,2.27598336 4.59841536,2.18308608 L4.59841536,2.0901888 C4.8771072,1.99729152 5.20224768,1.90439424 5.24869632,1.8579456 C5.29514496,1.81149696 5.3415936,1.81149696 5.3415936,1.81149696 Z M1.71859968,0.55738368 C1.48635648,0.55738368 1.34701056,0.55738368 1.25411328,0.60383232 L1.25411328,3.90168576 L1.20766464,3.90168576 C1.20766464,4.36617216 1.53280512,4.4126208 1.8579456,4.4126208 C3.15850752,4.4126208 3.62299392,3.43719936 3.62299392,2.50822656 C3.62299392,1.34701056 2.87981568,0.55738368 1.71859968,0.55738368 Z M10.2187008,2.04374016 C9.84711168,2.04374016 9.56841984,2.322432 9.5219712,2.74046976 L10.5438413,2.74046976 C10.6831872,2.74046976 10.7296358,2.64757248 10.7296358,2.60112384 C10.7296358,2.27598336 10.5438413,2.04374016 10.2187008,2.04374016 Z M5.15579904,0.27869184 C5.29514496,0.27869184 5.43449088,0.41803776 5.43449088,0.55738368 C5.43449088,0.74317824 5.29514496,0.88252416 5.15579904,0.88252416 C5.01645312,0.88252416 4.8771072,0.74317824 4.8771072,0.55738368 C4.8771072,0.41803776 5.01645312,0.27869184 5.15579904,0.27869184 Z" id="Combined-Shape"></path>
                            <path d="M26.3363789,0.04644864 C26.3712154,0.04644864 26.3799245,0.072576 26.3821018,0.1052352 L26.3820195,2.239 L26.4277339,2.20467744 C26.650633,2.0357568 26.9402112,1.8579456 27.2653517,1.8579456 C27.9620813,1.8579456 28.380119,2.46177792 28.380119,3.15850752 C28.380119,3.9481344 27.7762867,4.73776128 26.9402112,4.73776128 C26.4757248,4.73776128 26.2434816,4.59841536 26.1041357,4.50551808 L25.9183411,4.644864 L25.7789952,4.59841536 C25.8254438,4.22682624 25.8718925,3.90168576 25.8718925,3.53009664 L25.8718925,0.9289728 C25.8718925,0.51093504 25.7789952,0.51093504 25.546752,0.4644864 L25.546752,0.37158912 C25.7789952,0.27869184 26.057687,0.18579456 26.197033,0.09289728 C26.2434816,0.04644864 26.2899302,0.04644864 26.3363789,0.04644864 Z M12.262441,1.8579456 C12.2995999,1.8579456 12.3070317,1.8579456 12.308518,1.90550901 L12.3088896,2.50822656 C12.4482355,2.27598336 12.7269274,1.90439424 13.0985165,1.90439424 C13.2378624,1.90439424 13.423657,1.99729152 13.423657,2.22953472 C13.423657,2.41532928 13.3307597,2.5546752 13.1449651,2.5546752 C12.9591706,2.5546752 12.9591706,2.41532928 12.7269274,2.41532928 C12.6340301,2.41532928 12.262441,2.5546752 12.262441,2.92626432 L12.262441,4.36617216 C12.262441,4.5287424 12.3691277,4.54906368 12.4891502,4.55160384 L12.8662733,4.55196672 L12.8662733,4.69131264 L11.2870195,4.69131264 L11.2870195,4.69131264 L11.2870195,4.45906944 L11.5657114,4.45906944 C11.7515059,4.45906944 11.8444032,4.45906944 11.8444032,4.27327488 L11.8444032,2.5546752 C11.8444032,2.36888064 11.61216,2.322432 11.5192627,2.27598336 L11.5192627,2.18308608 C11.9837491,1.99729152 12.2159923,1.8579456 12.262441,1.8579456 Z M14.6313216,1.81149696 C14.8171162,1.81149696 15.095808,1.8579456 15.3280512,1.99729152 L15.3744998,2.60112384 L15.2351539,2.60112384 C15.1887053,2.22953472 14.9564621,1.99729152 14.584873,1.99729152 C14.3526298,1.99729152 14.1203866,2.13663744 14.1203866,2.41532928 C14.1203866,3.11205888 15.5138458,2.92626432 15.5138458,3.85523712 C15.5138458,4.27327488 15.1887053,4.69131264 14.445527,4.69131264 C14.2132838,4.69131264 13.934592,4.59841536 13.7023488,4.50551808 L13.6559002,3.80878848 L13.7487974,3.76233984 C13.8416947,4.1803776 14.0739379,4.50551808 14.5384243,4.50551808 C14.9100134,4.50551808 15.0493594,4.27327488 15.0493594,4.08748032 C15.0493594,3.39075072 13.7023488,3.62299392 13.7023488,2.60112384 C13.7023488,2.27598336 13.9810406,1.81149696 14.6313216,1.81149696 Z M19.5084288,0.27869184 C20.0193638,0.27869184 20.4838502,0.41803776 20.9483366,0.60383232 L20.9947853,1.43990784 L20.8554394,1.43990784 C20.7625421,0.74317824 20.251607,0.4644864 19.5548774,0.4644864 C18.8581478,0.4644864 17.8362778,0.9289728 17.8362778,2.41532928 C17.8362778,3.62299392 18.7188019,4.50551808 19.6477747,4.50551808 C20.251607,4.50551808 20.7625421,4.08748032 20.8554394,3.43719936 L20.9947853,3.483648 L20.8554394,4.36617216 C20.5767475,4.50551808 19.9264666,4.69131264 19.5084288,4.69131264 C18.068521,4.69131264 17.1859968,3.76233984 17.1859968,2.41532928 C17.1859968,1.161216 18.3007642,0.27869184 19.5084288,0.27869184 Z M23.3172173,1.90439424 C23.3543762,1.90439424 23.361808,1.93412137 23.3632943,2.01735733 L23.3636659,3.66944256 C23.3636659,3.85523712 23.3636659,4.36617216 23.874601,4.36617216 C24.0603955,4.36617216 24.3390874,4.22682624 24.6177792,3.99458304 L24.6177792,2.36888064 C24.6177792,2.2643712 24.461015,2.21211648 24.2846554,2.17292544 L24.1068442,2.13663744 L24.1068442,2.13663744 L24.1068442,2.04374016 C24.6642278,1.99729152 24.9893683,1.95084288 25.035817,1.95084288 C25.0822656,1.95084288 25.0822656,1.99729152 25.0822656,2.04374016 L25.0822656,4.27327488 L25.1287142,4.27327488 C25.1287142,4.36617216 25.1751629,4.36617216 25.3145088,4.36617216 L25.546752,4.36617216 L25.546752,4.36617216 L25.546752,4.50551808 C25.2680602,4.55196672 24.8035738,4.644864 24.6642278,4.69131264 L24.6177792,4.69131264 L24.6177792,4.1803776 C24.2461901,4.45906944 23.9674982,4.69131264 23.5494605,4.69131264 C23.22432,4.69131264 22.8991795,4.45906944 22.8991795,3.9481344 L22.8991795,2.36888064 C22.8991795,2.22953472 22.8527309,2.04374016 22.5275904,2.04374016 L22.5275904,1.95084288 C22.7598336,1.95084288 23.22432,1.90439424 23.3172173,1.90439424 Z M22.063104,-2.81759505e-12 C22.1095526,-2.81759505e-12 22.1095526,0.04644864 22.1095526,0.09289728 L22.1095526,4.31972352 C22.1095526,4.48229376 22.2162394,4.50261504 22.3673789,4.5051552 L22.5275904,4.50551808 L22.5275904,4.644864 L21.2270285,4.644864 L21.2270285,4.644864 L21.2270285,4.45906944 L21.3199258,4.45906944 C21.5057203,4.45906944 21.5986176,4.45906944 21.5986176,4.27327488 L21.5986176,0.88252416 C21.5986176,0.4644864 21.5057203,0.4644864 21.2734771,0.41803776 L21.2734771,0.32514048 C21.5057203,0.2322432 21.7844122,0.13934592 21.9237581,0.04644864 C21.9702067,-2.81759505e-12 22.0166554,-2.81759505e-12 22.063104,-2.81759505e-12 Z M26.9402112,2.13663744 C26.707968,2.13663744 26.5221734,2.27598336 26.3828275,2.41532928 L26.3828275,3.90168576 L26.3363789,3.90168576 C26.3363789,4.13392896 26.5686221,4.50551808 26.9866598,4.50551808 C27.6369408,4.50551808 27.9156326,3.85523712 27.9156326,3.34430208 C27.9156326,2.69402112 27.4046976,2.13663744 26.9402112,2.13663744 Z" id="Combined-Shape"></path>
                        </g>
                        <g id="Group" transform="translate(27.783000, 17.418240)" fill="#006AC9">
                            <path d="M0.64356768,0.37158912 L0.64356768,0.37158912 C0.74356768,0.37158912 0.74356768,0.32514048 0.74356768,0.27869184 C0.74356768,0.2322432 0.69356768,0.18579456 0.69356768,0.18579456 L0.64356768,0.18579456 L0.64356768,0.37158912 L0.64356768,0.37158912 Z M0.5506704,0.55738368 L0.5506704,0.55738368 C0.59711904,0.55738368 0.59711904,0.55738368 0.59711904,0.51093504 L0.59711904,0.2322432 C0.59711904,0.18579456 0.59711904,0.18579456 0.5506704,0.18579456 L0.5506704,0.18579456 L0.73646496,0.18579456 C0.7829136,0.18579456 0.87581088,0.2322432 0.87581088,0.27869184 C0.87581088,0.32514048 0.82936224,0.37158912 0.7829136,0.37158912 L0.82936224,0.4644864 C0.87581088,0.51093504 0.87581088,0.55738368 0.92225952,0.55738368 L0.92225952,0.55738368 L0.87581088,0.55738368 C0.82936224,0.55738368 0.82936224,0.51093504 0.73646496,0.41803776 L0.69001632,0.41803776 L0.69001632,0.51093504 C0.69001632,0.55738368 0.69001632,0.51093504 0.73646496,0.55738368 L0.73646496,0.55738368 L0.5506704,0.55738368 L0.5506704,0.55738368 Z M0.69001632,0.65028096 C0.82936224,0.65028096 0.96870816,0.51093504 0.96870816,0.37158912 C0.96870816,0.2322432 0.82936224,0.09289728 0.69001632,0.09289728 C0.5506704,0.09289728 0.41132448,0.2322432 0.41132448,0.37158912 C0.45777312,0.51093504 0.5506704,0.65028096 0.69001632,0.65028096 M0.69001632,0.04644864 C0.87581088,0.04644864 1.06160544,0.18579456 1.06160544,0.41803776 C1.06160544,0.65028096 0.92225952,0.74317824 0.69001632,0.74317824 C0.45777312,0.74317824 0.3184272,0.60383232 0.3184272,0.41803776 C0.3184272,0.2322432 0.50422176,0.04644864 0.69001632,0.04644864" id="Shape"></path>
                        </g>
                        <path d="M20.6231962,4.92355584 C20.6231962,3.43719936 20.0193638,2.0901888 18.9974938,1.02187008 C18.0220723,0.41803776 16.8608563,0.04644864 15.6531917,0.04644864 L12.9591706,0.04644864 C9.7542144,0.04644864 7.15309056,2.41532928 7.15309056,5.85252864 C7.15309056,7.29243648 7.71047424,8.5929984 8.5929984,9.61486848 C9.5219712,10.2651494 10.6367386,10.7296358 11.8444032,10.9154304 C9.47552256,10.4044954 7.71047424,8.31430656 7.71047424,5.75963136 C7.71047424,2.83336704 10.0793549,0.4644864 12.9591706,0.4644864 C15.8854349,0.4644864 18.2543155,2.83336704 18.2543155,5.75963136 C18.2543155,8.63944704 15.9783322,10.961879 13.0985165,11.0083277 C13.1914138,11.0083277 13.2378624,11.0083277 13.3307597,11.0083277 C17.3253427,11.0547763 20.6231962,8.31430656 20.6231962,4.92355584 Z" id="Path" fill="#131313"></path>
                        <path d="M12.9127219,0.04644864 C9.70776576,0.04644864 7.10664192,2.41532928 7.10664192,5.85252864 C7.10664192,7.24598784 7.61757696,8.54654976 8.50010112,9.5219712 C8.54654976,9.56841984 8.5929984,9.61486848 8.63944704,9.66131712 C9.56841984,10.3115981 10.6367386,10.7296358 11.8444032,10.961879 C9.47552256,10.450944 7.71047424,8.3607552 7.71047424,5.80608 C7.71047424,2.87981568 10.0793549,0.51093504 12.9591706,0.51093504 C15.8854349,0.51093504 18.2543155,2.87981568 18.2543155,5.80608 C18.2543155,8.68589568 15.9783322,11.0083277 13.0985165,11.0547763 C13.1914138,11.0547763 13.2378624,11.0547763 13.3307597,11.0547763 C13.5630029,11.0547763 13.7952461,11.0547763 14.0274893,11.0083277 C17.0930995,10.2651494 19.0439424,7.15309056 18.4865587,3.85523712 C18.2078669,2.322432 17.4646886,1.02187008 16.3963699,0.09289728 C16.1641267,0.04644864 15.9318835,0.04644864 15.6996403,0.04644864 L12.9127219,0.04644864 Z" id="Path" fill="#000000"></path>
                    </g>
                    <g id="paypal" transform="translate(268.758000, 0.567000)">
                        <path d="M13.5883065,2.86095681 C13.1946325,2.4861435 12.6237823,2.36425392 12.1113432,2.54558324 C11.9664397,2.59401139 11.8608961,2.719635 11.8382252,2.87071102 L11.7244133,3.65268658 C11.5518475,4.83378477 10.5412576,5.71094012 9.34762369,5.71570292 L7.72190859,5.71570292 C7.53535924,5.71574102 7.3728144,5.84277443 7.32766306,6.02376083 L6.10838626,10.900868 C6.05405223,11.1186613 6.18657238,11.3392361 6.4043657,11.3935702 C6.43648602,11.4015717 6.4694827,11.4056486 6.50259369,11.4056486 L8.53470899,11.4056486 C8.72125834,11.4056486 8.88380317,11.2785771 8.92895452,11.0975907 L9.66459756,8.15425652 L11.2496574,8.15425652 C12.4664194,8.15829538 13.5278761,7.32895854 13.8182545,6.14732691 L14.1181966,4.94511998 C14.3293601,4.2056286 14.1269601,3.40978378 13.5883065,2.86095681 Z" id="Path" fill="#4B4B4B" fill-rule="nonzero"></path>
                        <g id="Group" transform="translate(0.000000, 12.192768)" fill="#000000" fill-rule="nonzero">
                            <path d="M7.24730509,1.83192529 L7.84799995,2.73379528 L8.62908863,1.79774744 C8.77296329,1.62537218 9.02935434,1.60224402 9.2017296,1.74611868 C9.35255795,1.87200901 9.38911899,2.0840447 9.29951777,2.25056454 L9.25335835,2.31875965 L7.22124305,4.75731325 C7.14393328,4.84971157 7.02958798,4.90301683 6.90910819,4.90286475 C6.68464695,4.90278822 6.5027461,4.72073495 6.50282228,4.49627371 C6.5028604,4.40128443 6.5361619,4.30930524 6.59697333,4.23630104 L7.30499995,3.38479528 L6.57098749,2.28305771 C6.44639265,2.09631784 6.49680212,1.84392755 6.68358009,1.7193327 C6.87035805,1.59473785 7.12271025,1.64514732 7.24730509,1.83192529 Z M2.25314732,0.0257953033 C2.81431947,0.0256810176 3.26930023,0.480471264 3.26945264,1.04164341 C3.26945264,1.12474475 3.2592793,1.20754126 3.23916123,1.28816594 L3.13754213,1.69460424 C3.02449231,2.14707024 2.6179397,2.46446323 2.15156632,2.46438703 L1.13057441,2.46438703 L0.801369677,3.78200612 C0.756142128,3.96322114 0.593140061,4.09033074 0.406323994,4.08998851 C0.181862755,4.08998851 -7.62047998e-05,3.90793455 -2.39297414e-08,3.68347332 C-2.39297414e-08,3.65036233 0.0040769568,3.61736565 0.0120784608,3.58524533 L0.418516762,1.96768414 L0.418516762,1.95061427 L0.824955062,0.333853229 C0.870106406,0.152866829 1.03265124,0.0257953033 1.2192006,0.0257953033 L2.25314732,0.0257953033 Z M5.78863092,1.66320786 C6.00657664,1.71754188 6.1392492,1.93823099 6.08491518,2.15621482 L5.67847688,3.78192992 C5.63324933,3.96322114 5.47024726,4.09033074 5.28343119,4.08998851 C5.05896996,4.08991162 4.8770691,3.90789645 4.87710719,3.68343521 C4.87710719,3.65032423 4.88118416,3.61732755 4.88918566,3.58520723 L5.29562396,1.95949212 C5.34995798,1.7415464 5.57064708,1.60887384 5.78863092,1.66320786 Z M2.25310922,0.8377936 L1.53697461,0.8377936 L1.33377451,1.65143422 L2.15149012,1.65143422 C2.24472669,1.6511675 2.3258086,1.58749839 2.34821281,1.49700519 L2.44983191,1.09056689 C2.47768476,0.982317974 2.41245346,0.871973424 2.30420454,0.844158672 C2.28751569,0.839853101 2.27036961,0.837719366 2.25310922,0.8377936 Z" id="Combined-Shape"></path>
                            <path d="M4.75262666,4.08998966 L4.17388931,4.08998966 C3.55167711,4.09014023 3.04716324,3.58585497 3.04701073,2.96364277 C3.04697272,2.87147307 3.05828914,2.77964628 3.08061714,2.69025805 L3.08061714,2.69025805 L3.13426532,2.47402693 C3.2545546,1.98875477 3.69101759,1.64865275 4.19095918,1.65058768 L4.76969653,1.65058768 C5.39190873,1.65166284 5.89543194,2.15693876 5.89436677,2.77915095 C5.89421267,2.87086343 5.88285815,2.96219488 5.86056825,3.05112588 L5.80692007,3.267357 C5.68651648,3.751448 5.25142518,4.09090228 4.75262666,4.08998966 Z M3.86987026,2.8877809 C3.82811003,3.05596489 3.93060548,3.22613021 4.09878948,3.26789044 C4.12336552,3.27398682 4.14855121,3.27707312 4.17388931,3.27715035 L4.75262666,3.27715035 C4.87794545,3.27749224 4.98729934,3.19229528 5.01762885,3.07067242 L5.07127703,2.8544413 C5.11303726,2.6862573 5.0105418,2.51609198 4.84235781,2.47433175 C4.81778176,2.46823537 4.79259608,2.46514908 4.76725798,2.46507184 L4.18852063,2.46507184 C4.06320183,2.46472995 3.95384795,2.54992692 3.92351844,2.67154978 L3.86987026,2.8877809 Z" id="Shape"></path>
                        </g>
                        <g id="Group" transform="translate(9.754214, 12.192768)" fill="#000000" fill-rule="nonzero">
                            <path d="M2.25314732,0.0257572009 C2.81431947,0.0256429152 3.26930023,0.480433162 3.26945264,1.04160531 C3.26945264,1.12470664 3.2592793,1.20750316 3.23916123,1.28812784 L3.13754213,1.69456614 C3.02449231,2.14703214 2.6179397,2.46442513 2.15156632,2.46434892 L1.13061252,2.46434892 L0.801407779,3.78196802 C0.756142128,3.96322114 0.593140061,4.09033074 0.406323994,4.08998851 C0.181862755,4.08991162 -3.81024034e-05,3.90789645 -5.98819633e-09,3.68343521 C-5.98819633e-09,3.65032423 0.0040769568,3.61732755 0.0120784608,3.58520723 L0.418516762,1.96764604 L0.418516762,1.95057616 L0.824955062,0.333815126 C0.870106406,0.152828726 1.03265124,0.0257572009 1.2192006,0.0257572009 L2.25314732,0.0257572009 Z M4.76969653,1.65058768 C4.98693626,1.65053736 5.18982863,1.71197667 5.36191725,1.81845602 C5.45535025,1.68878797 5.62277365,1.62186676 5.78863092,1.66320786 C5.97933343,1.71075013 6.10474867,1.88565801 6.0967232,2.07467427 L6.08491518,2.15621482 L5.87044295,3.01844398 C5.86810659,3.02910316 5.86561498,3.03973157 5.8629687,3.05032573 L5.80932052,3.26655685 L5.79799999,3.29975718 L5.67847688,3.78192992 C5.63324933,3.96322114 5.47024726,4.09033074 5.28343119,4.08998851 C5.21186384,4.089964 5.14462315,4.07144376 5.08622681,4.03894918 C4.98177356,4.07238974 4.86891742,4.09044619 4.75262666,4.08999611 L4.17388931,4.08999611 C3.55167711,4.09014023 3.04716324,3.58585497 3.04701073,2.96364277 C3.04698539,2.9021963 3.05200646,2.84090224 3.06197236,2.78038152 L3.08061714,2.69025805 L3.13426532,2.47402693 C3.2545546,1.98875477 3.69101759,1.64865275 4.19095918,1.65058768 L4.76969653,1.65058768 Z M4.76725798,2.46507184 L4.18852063,2.46507184 C4.06320183,2.46472995 3.95384795,2.54992692 3.92351844,2.67154978 L3.86987026,2.8877809 C3.82811003,3.05596489 3.93060548,3.22613021 4.09878948,3.26789044 C4.12336552,3.27398682 4.14855121,3.27707312 4.17388931,3.27715035 L4.75262666,3.27715035 C4.87794545,3.27749224 4.98729934,3.19229528 5.01762885,3.07067242 L5.07127703,2.8544413 C5.11303726,2.6862573 5.0105418,2.51609198 4.84235781,2.47433175 C4.81778176,2.46823537 4.79259608,2.46514908 4.76725798,2.46507184 Z M2.25394747,0.8377936 L1.53701271,0.8377936 L1.33377451,1.65143422 L2.15232837,1.65143422 C2.24556494,1.6511675 2.32664685,1.58749839 2.34905106,1.49700519 L2.45067016,1.09056689 C2.47848492,0.982317974 2.41329171,0.871973424 2.30504279,0.844158672 C2.28835394,0.839853101 2.27116976,0.837719366 2.25394747,0.8377936 Z" id="Combined-Shape"></path>
                        </g>
                        <g id="Group" transform="translate(6.477408, 13.831171)"></g>
                        <path d="M16.6633226,16.2827565 C16.4388614,16.2826796 16.2569605,16.1006645 16.2569986,15.8762032 C16.2569986,15.8430922 16.2610756,15.8100955 16.2690771,15.7779752 L17.0819156,12.5265831 C17.1362496,12.3086374 17.3569387,12.1759648 17.5749225,12.2302989 C17.7928682,12.2846329 17.9255408,12.505322 17.8712068,12.7233058 L17.8712068,12.7233058 L17.0583683,15.9746979 C17.0131788,16.1559891 16.8501768,16.2830987 16.6633226,16.2827565 Z" id="Path" fill="#000000" fill-rule="nonzero"></path>
                        <path d="M12.2463019,0.72886081 C11.8557904,0.281576736 11.290808,0.0251856864 10.6970202,0.0257562689 L6.09626969,0.0257562689 C5.89969941,0.0257562689 5.73132491,0.166431283 5.6963469,0.359839066 L4.0706318,9.30117686 C4.03066238,9.52205648 4.17735662,9.73348669 4.39823624,9.77345611 C4.42208834,9.77776168 4.44632147,9.77993352 4.47055459,9.77993352 L6.90910819,9.77993352 C7.09565754,9.77993352 7.25820238,9.65286202 7.30335372,9.47187562 L8.03979691,6.52854142 L9.34766179,6.52854142 C10.9463623,6.52225452 12.2997595,5.34690979 12.5299742,3.76486004 L12.7331743,2.37568464 L12.7331743,2.37568464 C12.8169615,1.78216356 12.6393662,1.18144112 12.2463019,0.72886081 Z" id="Path" fill="#000000" fill-rule="nonzero"></path>
                    </g>
                    <g id="ssl-(2)" transform="translate(0.000000, 0.567000)" fill="#000000" fill-rule="nonzero">
                        <path d="M11.4068941,5.42076891 C12.2320814,5.42076891 12.9034254,6.09211285 12.9034254,6.91730021 L12.9034254,6.91730021 L12.9034254,12.7371441 C12.9034254,15.1026945 10.9788861,17.0272005 8.61336901,17.0272005 L8.61336901,17.0272005 L4.29005638,17.0272005 C1.92450599,17.0272005 8.76685391e-13,15.1026613 8.76685391e-13,12.7371441 L8.76685391e-13,12.7371441 L8.76685391e-13,6.91730021 C8.76685391e-13,6.09211285 0.671343939,5.42076891 1.4965313,5.42076891 L1.4965313,5.42076891 Z M3.44165616,8.46371588 C2.61124757,8.46371588 2.01050665,9.01251053 2.00368912,9.77128516 C1.99537506,10.7026265 2.81241463,10.9912242 3.20507119,11.1299028 C3.218673,11.1347249 3.23234132,11.138882 3.24604289,11.1424404 C3.26410104,11.1486593 3.28192639,11.154978 3.30001779,11.1611637 C3.88589316,11.3621644 3.97395571,11.4431767 3.97239267,11.6174062 C3.96993171,11.8940982 3.70291727,11.9362338 3.54075979,11.9362338 L3.54075979,11.9362338 C3.32725466,11.9353027 3.03243799,11.8382609 3.03243799,11.6254874 C3.03243799,11.3499926 2.80908901,11.1266437 2.53359423,11.1266437 C2.25809944,11.1266437 2.03475046,11.3499926 2.03475046,11.6254874 C2.03475046,12.3676007 2.67849171,12.9300969 3.53211316,12.9339214 L3.53211316,12.9339214 C4.36255501,12.9339214 4.96329592,12.3851267 4.97004694,11.6262523 C4.9738049,11.2036651 4.7942544,10.8480228 4.4508171,10.597836 C4.19993194,10.4150929 3.90701088,10.3145925 3.62370088,10.2174178 C3.5761777,10.2011222 3.52868777,10.1848599 3.48179645,10.1682318 L3.48179645,10.1682318 L3.46919234,10.1644738 C3.03263753,10.0028152 3.00017943,9.90993047 3.0013434,9.78019783 C3.00383762,9.50111137 3.27547467,9.46143667 3.43719982,9.46137015 C3.64651467,9.46233458 3.94133133,9.55937632 3.94133133,9.77214982 C3.94133133,10.0476446 4.16468031,10.2709936 4.4401751,10.2709936 C4.71566988,10.2709936 4.93901886,10.0476446 4.93901886,9.77214982 C4.93901886,9.03003658 4.29531087,8.46754035 3.44165616,8.46371588 L3.44165616,8.46371588 Z M6.59870532,8.46374914 C5.76829674,8.46374914 5.16755582,9.01254379 5.16073829,9.77131841 C5.15242422,10.7026597 5.9694638,10.9912575 6.36212035,11.129936 C6.3756889,11.1347249 6.38932397,11.138882 6.40299229,11.1424404 C6.42105043,11.1486593 6.43894229,11.1549447 6.45703369,11.1611637 C7.04294232,11.3621312 7.13100488,11.4431767 7.12944183,11.6174062 C7.12698087,11.8940982 6.85996643,11.9362338 6.69780895,11.9362338 L6.69780895,11.9362338 C6.48427056,11.9353027 6.1894539,11.8382609 6.1894539,11.6254874 C6.1894539,11.3499926 5.96610492,11.1266437 5.69061013,11.1266437 C5.41511535,11.1266437 5.19176637,11.3499926 5.19176637,11.6254874 C5.19176637,12.3676007 5.83547436,12.9300969 6.68912907,12.9339214 L6.68912907,12.9339214 C7.51953766,12.9339214 8.12027858,12.3851267 8.12709611,11.6263188 C8.13088732,11.2036984 7.95133682,10.8480561 7.60786626,10.5978693 C7.3569811,10.4150929 7.06402679,10.3146258 6.78071679,10.217451 C6.73316035,10.2011555 6.68570368,10.1848932 6.63881236,10.168265 L6.63881236,10.168265 L6.62617499,10.1645071 C6.18968669,10.0028484 6.15722859,9.90999698 6.15839256,9.78023109 C6.16088678,9.50114463 6.43249058,9.46146992 6.59424899,9.46140341 C6.80356383,9.46236784 7.09838049,9.55940958 7.09838049,9.77218308 C7.09838049,10.0476779 7.32172948,10.2710268 7.59722426,10.2710268 C7.87271904,10.2710268 8.09606802,10.0476779 8.09606802,9.77218308 C8.09606802,9.03006983 7.45236003,8.4675736 6.59870532,8.46374914 L6.59870532,8.46374914 Z M8.97087371,8.47775002 C8.69537892,8.47775002 8.47202994,8.701099 8.47202994,8.97659378 L8.47202994,8.97659378 L8.47202994,12.4349446 C8.47202994,12.7104394 8.69537892,12.9337883 8.97087371,12.9337883 L8.97087371,12.9337883 L10.4008925,12.9337883 C10.6763873,12.9337883 10.8997363,12.7104394 10.8997363,12.4349446 C10.8997363,12.1594498 10.6763873,11.9361008 10.4008925,11.9361008 L10.4008925,11.9361008 L9.46971747,11.9361008 L9.46971747,8.97659378 C9.46971747,8.701099 9.24636849,8.47775002 8.97087371,8.47775002 Z M6.45171269,1.68186354e-12 C8.83558728,1.68186354e-12 10.7750253,1.93940479 10.7750253,4.32331263 L10.7750253,4.32331263 L10.7750253,4.42308138 L9.77733779,4.42308138 L9.77733779,4.32331263 C9.77733779,2.48952969 8.28549563,0.99768753 6.45171269,0.99768753 C4.61792976,0.99768753 3.12608759,2.48956295 3.12608759,4.32331263 L3.12608759,4.32331263 L3.12608759,4.42308138 L2.12840006,4.42308138 L2.12840006,4.32331263 C2.12840006,1.93940479 4.06783811,1.68186354e-12 6.45171269,1.68186354e-12 Z" id="Combined-Shape"></path>
                    </g>
                    <g id="payment" transform="translate(32.886000, 1.701000)" fill="#000000" fill-rule="nonzero">
                        <path d="M12.5098377,5.16675767 C12.6452571,5.10573245 12.7935135,5.1102553 12.9190558,5.16675767 L12.9190558,5.16675767 L16.7329492,6.89179266 C16.9172221,6.97480027 17.0263691,7.15601358 17.0264689,7.345807 L17.0264689,7.345807 L17.0271679,10.4377737 C17.0276994,11.6374929 16.6822999,12.8184889 15.6898004,13.5694483 L15.6898004,13.5694483 L13.0162971,15.5923263 C12.8316917,15.73167 12.5814716,15.7229901 12.4079738,15.5861739 L12.4079738,15.5861739 L9.74032359,13.5696479 C8.74705914,12.8187882 8.40169297,11.6370939 8.40169297,10.4367095 L8.40169297,10.4367095 L8.40169297,7.34524165 C8.40169297,7.13216885 8.53534984,6.95025715 8.72338069,6.87882273 L8.72338069,6.87882273 Z M15.0852682,8.63003039 C14.8904864,8.43524853 14.5746518,8.43524853 14.3798699,8.63003039 L14.3798699,8.63003039 L12.2992591,10.710608 L11.4874407,9.89878962 C11.2926589,9.70400776 10.9768243,9.70400776 10.7820424,9.89878962 C10.5872605,10.0935715 10.5872605,10.4094061 10.7820424,10.604188 L10.7820424,10.604188 L11.9465433,11.7686888 C12.1413251,11.9634707 12.4571598,11.9634707 12.6519416,11.7686888 L12.6519416,11.7686888 L15.0852682,9.33542873 C15.2800501,9.14064687 15.2800501,8.82481225 15.0852682,8.63003039 Z M7.44826951,6.98786997 L7.44940022,11.0783888 L1.13892683,11.0783888 C0.825220612,11.0783888 0.540347566,10.9503855 0.33415881,10.74423 C0.12800331,10.5380745 -8.1843865e-13,10.2532015 -8.1843865e-13,9.93946202 L-8.1843865e-13,9.93946202 L-8.1843865e-13,6.98786997 L7.44826951,6.98786997 Z M10.4777477,4.99252817 C9.74374898,5.3243923 9.0006048,5.65013728 8.27146149,5.9902157 L8.27146149,5.9902157 L-9.51665413e-13,5.9902157 L-9.51665413e-13,4.99252817 Z M14.0911059,0.00405726262 C14.7192499,0.00405726262 15.231363,0.516203528 15.231363,1.14431434 L15.231363,1.14431434 L15.231363,5.11946728 L14.2336754,4.66821321 L14.2336754,3.13835915 C14.2336754,1.96268417 13.2727693,1.00174479 12.0970611,1.00174479 L12.0970611,1.00174479 L2.00428774,1.00174479 C2.07522332,0.437319701 2.55886898,0.00405726262 3.13563214,0.00405726262 L3.13563214,0.00405726262 Z M12.0970278,1.99943232 C12.4107673,1.99943232 12.6956403,2.12740238 12.9017958,2.33359113 C13.1079846,2.53977989 13.2359879,2.82465293 13.2359879,3.13835915 L13.2359879,3.13835915 L13.2359879,3.99480738 L-1.03693054e-12,3.99480738 L-1.03693054e-12,3.13835915 C-1.03693054e-12,2.82465293 0.12800331,2.53981315 0.33415881,2.33359113 C0.540347566,2.12743563 0.825220612,1.99943232 1.13892683,1.99943232 L1.13892683,1.99943232 Z" id="Combined-Shape"></path>
                    </g>
                </g>
            </g>
        </g>
    </g>
</svg>