<svg xmlns="http://www.w3.org/2000/svg" viewBox="0 0 912.91 226.75"><defs><style>.cls-1{fill:#fff;}</style></defs><g id="Layer_2" data-name="Layer 2"><g id="Objects"><g id="_927fHW" data-name="927fHW"><path class="cls-1" d="M712.06,153.33v-26.6H624.68V83.63h98.68v-26H593.62V224h131V197.73h-100v-44.4ZM180.71,57.39V224H211.5V154.39h83.36V224h30.62V57.51H294.81v68.54H211.14V57.39ZM872,83.34c-1.86,2.36-2.9,3.8-4.06,5.14q-48,55.26-96,110.54c-1.25,1.44-2.79,3.25-2.88,5-.34,6.6-.14,13.23-.14,20H912.57V197.85H810c1.4-1.75,2.19-2.8,3-3.79q48.19-55.47,96.39-110.93c1.28-1.48,3.17-3.15,3.26-4.82.37-6.91.16-13.85.16-20.73H772.44V83.34ZM0,199.7c1.37,1.18,2.44,2.19,3.58,3.09A105.55,105.55,0,0,0,48.83,224c21.3,4.21,42.52,4.55,62.37-5.95,16.83-8.91,24.92-23.29,24.84-42.42-.08-18.07-9-30.39-24.85-37.62-8.87-4-18.37-6.76-27.69-9.74-11.07-3.54-22.34-6.43-33.33-10.18-5.46-1.86-9.8-5.63-11.4-11.71C36.3,97,40.63,88.43,50.34,84.22c10.09-4.37,20.49-3.67,30.89-1.4,12.06,2.62,22.7,8.4,33,15.46L130.85,76c-.85-.71-1.44-1.25-2.09-1.73A97,97,0,0,0,79.48,55.47c-17.86-1.63-35.37-.48-51.05,9.6C13.22,74.84,6.25,89,7,107c.77,17.45,9.79,29.47,25.56,36.16,8.68,3.68,17.84,6.29,26.86,9.11,11.4,3.57,23.06,6.39,34.27,10.47,7.41,2.69,11.59,8.68,11.27,17.13s-5.93,15.41-15.85,18.33c-14.83,4.35-29.57,2.72-43.48-3.23-9.53-4.08-18.27-10-27.85-15.34ZM418.66.45a21.74,21.74,0,0,0,1.26,1.94C429.88,14,439.48,26,450.08,37.07c2.36,2.46,8.23,1.52,12.48,2.19,3.66.57,6.23-.78,8.5-3.76,3.63-4.76,7.7-9.19,11.58-13.77C488.5,14.8,494.35,7.85,500.55.51c-8.35-1.09-15.05-1-20.81,5.89s-13.09,12.65-19.91,19.09C452.76,18.86,445.38,13,439.35,6,433.48-.82,426.67-.37,418.66.45Z"/><path d="M712.06,153.33H624.63v44.4h100V224h-131V57.59H723.36v26H624.68v43.1h87.38Z"/><path d="M180.71,57.39h30.43v68.66h83.67V57.51h30.67V224H294.86V154.39H211.5V224H180.71Z"/><path d="M872,83.34H772.44V57.58H912.85c0,6.88.21,13.82-.16,20.73-.09,1.67-2,3.34-3.26,4.82Q861.27,138.62,813,194.06c-.86,1-1.65,2-3,3.79H912.57V224H768.91c0-6.77-.2-13.4.14-20,.09-1.71,1.63-3.52,2.88-5q48-55.31,96-110.54C869.13,87.14,870.17,85.7,872,83.34Z"/><path d="M0,199.7l17.82-20.12c9.58,5.36,18.32,11.26,27.85,15.34,13.91,6,28.65,7.58,43.48,3.23,9.92-2.92,15.52-9.82,15.85-18.33s-3.86-14.44-11.27-17.13c-11.21-4.08-22.87-6.9-34.27-10.47-9-2.82-18.18-5.43-26.86-9.11C16.83,136.42,7.81,124.4,7,107c-.79-18,6.18-32.11,21.39-41.88C44.11,55,61.62,53.84,79.48,55.47A97,97,0,0,1,128.76,74.3c.65.48,1.24,1,2.09,1.73L114.23,98.28c-10.3-7.06-20.94-12.84-33-15.46-10.4-2.27-20.8-3-30.89,1.4-9.71,4.21-14,12.73-11.57,22.16,1.6,6.08,5.94,9.85,11.4,11.71,11,3.75,22.26,6.64,33.33,10.18,9.32,3,18.82,5.7,27.69,9.74,15.86,7.23,24.77,19.55,24.85,37.62.08,19.13-8,33.51-24.84,42.42-19.85,10.5-41.07,10.16-62.37,5.95A105.55,105.55,0,0,1,3.58,202.79C2.44,201.89,1.37,200.88,0,199.7Z"/><path d="M459.25,226.29c-39.24,0-72-22.46-83.95-57.5-16.65-48.9,13.79-101.63,64.55-111.44,29.56-5.71,57-.6,80,19.55,42.83,37.54,36.71,105.68-11.69,135.69A93.18,93.18,0,0,1,459.25,226.29Zm69.8-85.21c0-39.6-29.67-69.76-68.76-69.82-40.29-.06-70.4,29.51-70.43,69.15,0,39.44,30.14,69.8,69.47,69.9C499.19,210.41,529,180.8,529.05,141.08Z"/><path d="M418.66.45c8-.82,14.82-1.27,20.69,5.55,6,7,13.41,12.86,20.48,19.49,6.82-6.44,14.09-12.16,19.91-19.09s12.46-7,20.81-5.89c-6.2,7.34-12.05,14.29-17.91,21.22-3.88,4.58-7.95,9-11.58,13.77-2.27,3-4.84,4.33-8.5,3.76-4.25-.67-10.12.27-12.48-2.19-10.6-11-20.2-23-30.16-34.68A21.74,21.74,0,0,1,418.66.45Z"/></g></g></g></svg>