<svg xmlns="http://www.w3.org/2000/svg" width="162.192" height="69.14" viewBox="0 0 162.192 69.14">
  <g id="Artboard_1" data-name="Artboard 1" transform="translate(-12.44 -8.871)">
    <path id="Path_70" data-name="Path 70" d="M195.424,121.339c-1.452.057-2.9.162-4.347.162-1.677,0-3.359,0-5.036-.146-1.16-.1-2.325-.131-3.49-.2s-2.419-.152-3.631-.219c-.784-.047-1.567-.084-2.346-.115l-4.289-.146q-2.011-.068-4.038-.12c-.778,0-1.567,0-2.346-.026-1.379,0-2.759-.037-4.143-.031h-3.694c-1.233,0-2.529.068-3.793.063-3.887,0-7.764.214-11.64.413-1.614.078-3.229.146-4.838.293-1.014.089-2.027.115-3.041.209-1.672.157-3.349.266-5.026.408-1.259.11-2.518.23-3.777.345q-2.437.227-4.864.522-1.938.2-3.866.444c-1.719.219-3.432.455-5.146.674-1.254.167-2.508.319-3.762.481s-2.5.345-3.756.522c-.444.057-.893.115-1.337.152-.878.084-1.75.23-2.612.246a3.837,3.837,0,0,0-.491.073,2.611,2.611,0,0,1-.449,0,.3.3,0,0,1-.272-.256c-.037-.162.068-.251.193-.308a4.18,4.18,0,0,1,1.045-.282q3.715-.658,7.424-1.29c1.985-.34,3.976-.658,5.961-.972s3.944-.622,5.919-.909c1.233-.178,2.476-.313,3.715-.481,1.646-.225,3.3-.418,4.948-.606,1.458-.162,2.91-.334,4.368-.475l3.474-.34q2.011-.188,4.028-.36c1.792-.152,3.584-.272,5.371-.423,1.567-.131,3.166-.136,4.739-.282,2.377-.225,4.759-.272,7.137-.34,1.98-.052,3.96-.125,5.945-.136,1.045,0,2.126-.052,3.192-.042h4.89c1.233,0,2.466.031,3.694.047,1.531,0,3.062.057,4.587.115,1.813.068,3.621.188,5.433.251a74.662,74.662,0,0,1,12.993,1.724,10.57,10.57,0,0,1,1.593.434,3.174,3.174,0,0,1,.366.152c.157.084.4.12.366.35s-.261.157-.418.183a19.487,19.487,0,0,1-2.142.146c-.93.057-1.865.078-2.8.115Z" transform="translate(-41.521 -52.037)" fill="#231f20"/>
    <path id="Path_71" data-name="Path 71" d="M31.358,52.139c-.434.491-.836.914-1.2,1.364-1.8,2.236-3.621,4.462-5.261,6.823a91.572,91.572,0,0,0-5.3,8.208c-.846,1.567-1.646,3.135-2.5,4.671a9.294,9.294,0,0,0-.8,2.727A9.059,9.059,0,0,1,15.141,78.9c-.152.251-.266.643-.643.564s-.34-.434-.4-.711a8.114,8.114,0,0,1-.031-3.657c.778-3.589,1.567-7.163,2.7-10.663.831-2.612,1.808-5.224,2.764-7.79,1.306-3.532,2.774-7,4.117-10.517a3.26,3.26,0,0,0,.282-.94c-.2-.089-.3.068-.408.152-1.426,1.045-2.842,2.163-4.279,3.223a14.629,14.629,0,0,1-3.187,1.912,3.788,3.788,0,0,1-1.64.324,2.179,2.179,0,0,1-1.954-1.719.956.956,0,0,1,0-.345.342.342,0,0,1,.585-.089c.073.115.131.24.209.35a1.045,1.045,0,0,0,1.165.444,5.052,5.052,0,0,0,1.452-.726,26.039,26.039,0,0,0,2.4-1.761c1.494-1.2,2.962-2.445,4.535-3.553a4.007,4.007,0,0,1,1.771-.841,2.152,2.152,0,0,1,.522-.031.935.935,0,0,1,.972,1.008,6.013,6.013,0,0,1-.251,1.724c-.256.956-.575,1.891-.925,2.821-2,5.224-3.8,10.548-5.517,15.888a3.433,3.433,0,0,0-.23.914,1.452,1.452,0,0,0,.366-.522,78.57,78.57,0,0,1,10.041-13.8c.773-.846,1.567-1.656,2.361-2.5a1.86,1.86,0,0,1,1.567-.5c.439,0,.637.371.549.857s-.219,1.045-.345,1.536c-.893,3.657-1.782,7.351-2.691,11.024-.5,1.938-1.024,3.871-1.5,5.825a1.426,1.426,0,0,0-.084.611c.157,0,.178-.12.219-.2a38.072,38.072,0,0,1,3.025-4.629c1.108-1.52,2.142-3.093,3.391-4.509a15.981,15.981,0,0,1,2.377-2.247,5.841,5.841,0,0,1,3.291-1.175,2.116,2.116,0,0,1,2.09,1.609,5.005,5.005,0,0,1-.052,2.09c-.522,2.309-1.217,4.571-1.923,6.828q-1.667,5.308-3.291,10.621a29.91,29.91,0,0,0-1.045,5.073,22.376,22.376,0,0,1-.522,2.5,6.577,6.577,0,0,0-.219,1.494c0,.157,0,.329-.188.392s-.3-.057-.413-.162a1.363,1.363,0,0,1-.272-.3,7.168,7.168,0,0,1-1.045-4.117,21.2,21.2,0,0,1,.643-3.6A68.233,68.233,0,0,1,37.9,70.038c1.369-3.657,2.7-7.314,3.814-11.06A6.933,6.933,0,0,0,42.11,57.1c0-.522-.152-.705-.695-.658a3.464,3.464,0,0,0-1.656.669,14.78,14.78,0,0,0-3.025,2.962c-1.233,1.567-2.351,3.187-3.657,4.676-1.191,1.364-2.184,2.873-3.281,4.3a16.054,16.054,0,0,0-1.745,2.45c-.251.522-.522.522-.972.167a3.187,3.187,0,0,1-1.071-2.247,10.068,10.068,0,0,1,.408-2.868c.455-2.032,1.207-3.971,1.855-5.945.9-2.727,1.938-5.407,3.03-8.061a.559.559,0,0,0,.057-.413Z" transform="translate(0 -16.07)" fill="#231f20"/>
    <path id="Path_72" data-name="Path 72" d="M77.075,85.1c-.219.266-.444.522-.658.8A33.959,33.959,0,0,1,73.2,89.511a12.252,12.252,0,0,1-2.722,1.975,3.657,3.657,0,0,1-.987.345,1.479,1.479,0,0,1-1.672-.752,3.762,3.762,0,0,1-.522-3.009,6.417,6.417,0,0,1,.4-1.155,45.541,45.541,0,0,1,3.939-6.651,1.2,1.2,0,0,1,.444-.455.449.449,0,0,1,.695.449,2.273,2.273,0,0,1-.094.564c-.413,1.176-.872,2.325-1.369,3.464a45.085,45.085,0,0,0-1.567,4.373A2.884,2.884,0,0,0,69.6,89.7c0,.324.157.413.465.3a5.3,5.3,0,0,0,.627-.3,15.977,15.977,0,0,0,3.715-3.056c1.181-1.207,2.325-2.45,3.49-3.657a4.581,4.581,0,0,0,.852-1.165,5.674,5.674,0,0,1,.486-.794,1.045,1.045,0,0,1,.481-.413.684.684,0,0,1,.763.063c.209.209.073.449-.037.648a10.878,10.878,0,0,0-.867,2.4c-.392,1.4-.82,2.8-1.3,4.18-.632,1.813-1.045,3.688-1.6,5.527-.136.449-.282.893-.413,1.337s-.115.522.408.522a2.924,2.924,0,0,0,.522-.031,7.262,7.262,0,0,1,3.715.752c.193.11.486.2.449.475s-.366.214-.58.261a2.252,2.252,0,0,1-1.149,0,14.137,14.137,0,0,0-3.412-.334c-.522,0-.522,0-.716.522-.522,1.442-1.008,2.894-1.567,4.331a39.214,39.214,0,0,1-4.018,7.863,8.845,8.845,0,0,1-1.526,1.75,4.394,4.394,0,0,1-1.228.763,2.286,2.286,0,0,1-3.009-1.113,4.7,4.7,0,0,1-.444-3.385,15.511,15.511,0,0,1,3.093-7.011,12.68,12.68,0,0,1,5.465-4.023,1.526,1.526,0,0,0,.94-.93c.663-1.6,1.238-3.223,1.8-4.854s1.29-3.2,2-4.78c.057-.12.11-.24.167-.366ZM72.19,97.389a1.2,1.2,0,0,0-.2.057c-.157.078-.313.152-.465.246a12.434,12.434,0,0,0-5.747,7.314,9.7,9.7,0,0,0-.522,2.915,3.223,3.223,0,0,0,.2,1.134c.152.371.345.434.684.246a3.134,3.134,0,0,0,.632-.522,9.764,9.764,0,0,0,1.74-2.534,56.758,56.758,0,0,0,3.558-8.4.408.408,0,0,0,.115-.444Z" transform="translate(-24.417 -33.84)" fill="#231f20"/>
    <path id="Path_73" data-name="Path 73" d="M182.907,60.871c.522-.559,1.081-1.1,1.609-1.667,2-2.142,4-4.289,5.982-6.442a37.9,37.9,0,0,0,2.408-3.067,2.037,2.037,0,0,0,.293-.428.664.664,0,0,1,.564-.434c.721-.125,1.045.136.967.878a18.422,18.422,0,0,1-.684,3.359q-.972,3.385-1.938,6.792a7.889,7.889,0,0,0-.408,2.283c0,.486.12.559.554.313a16.442,16.442,0,0,0,2.173-1.567,25.028,25.028,0,0,1,2.346-1.7.773.773,0,0,0,.428-.695,4.535,4.535,0,0,1,.622-1.985,10.935,10.935,0,0,1,8.464-6.045,5.533,5.533,0,0,1,2.3.1c.439.12.444.1.627-.355.6-1.5,1.165-3,1.782-4.493.752-1.808,1.4-3.657,2.267-5.418A63.064,63.064,0,0,1,221.1,28.077a15.485,15.485,0,0,1,2.973-2.931,3.981,3.981,0,0,1,1.708-.705,1.63,1.63,0,0,1,1.943,1.165,5.141,5.141,0,0,1,.219,1.782,10.972,10.972,0,0,1-.658,3.354,29.778,29.778,0,0,1-2.868,5.58,54.481,54.481,0,0,1-5.073,6.886,56.014,56.014,0,0,1-5.6,5.6c-.5.428-1,.862-1.52,1.259a1.625,1.625,0,0,0-.564.784A115.873,115.873,0,0,0,208.011,61.9c-.235.883-.413,1.776-.575,2.67a1.823,1.823,0,0,0,.115,1.045c.162.4.3.455.653.209.272-.183.522-.4.784-.6a37.091,37.091,0,0,0,2.811-2.7c.34-.319.648-.669,1-.977a49.312,49.312,0,0,0,5.167-5.486c.836-1,1.667-2,2.471-3.02a6.342,6.342,0,0,0,.69-1.16,1.045,1.045,0,0,1,1.014-.522.527.527,0,0,1,.6.606,3,3,0,0,1-.24.951c-.888,2.508-1.761,5.021-2.435,7.591a12.247,12.247,0,0,0-.329,1.891,1.7,1.7,0,0,0,0,.23c0,.408.078.455.444.308a7.529,7.529,0,0,0,1.515-.867c1.442-1.045,2.732-2.236,4.138-3.3a38.251,38.251,0,0,0,3.537-3.532,13.009,13.009,0,0,1,2.445-1.964,1.739,1.739,0,0,1,.251-.146c.209-.094.449-.235.627,0s0,.46-.146.627a19.56,19.56,0,0,0-1.985,2.278,27.974,27.974,0,0,0-2.158,3.244,8.48,8.48,0,0,0-.721,1.834,2.612,2.612,0,0,0,.235,1.813.8.8,0,0,0,1.275.428,8.72,8.72,0,0,0,2.889-2.492c.037-.042.063-.094.1-.136a1.045,1.045,0,0,0,.141-1.473,4.07,4.07,0,0,1-.24-4.106,7.884,7.884,0,0,1,1.656-2.581,3.182,3.182,0,0,1,2.3-.857,1.374,1.374,0,0,1,1.118.752,2.925,2.925,0,0,1,.387,1.212,6.86,6.86,0,0,1-.167,2.821,13.189,13.189,0,0,1-.695,2.038c-.125.261-.214.522-.313.778.11.188.261.146.387.157,1.51.1,3.02.047,4.535,0,1.823,0,3.657-.209,5.454-.261,1.243-.037,2.482-.037,3.72-.068a14.467,14.467,0,0,1,3.657.439,2.059,2.059,0,0,1,.491.183c.219.115.235.3.042.465a1.5,1.5,0,0,1-.522.256,14.048,14.048,0,0,1-3.986.747c-1.63.052-3.255.131-4.88.2-1.108.042-2.21.042-3.312.12-.93.068-1.865.037-2.79.031a10.778,10.778,0,0,1-3.1-.465c-.627-.2-.569-.272-.977.4a12.2,12.2,0,0,1-3.464,3.877,6.185,6.185,0,0,1-2.826,1.155,1.9,1.9,0,0,1-1.071-.167,3.385,3.385,0,0,1-1.515-1.322,5.585,5.585,0,0,1-.987-3.291,4.933,4.933,0,0,1,.246-1.134c.052-.178.183-.34.146-.559-.209,0-.313.157-.434.261-.893.8-1.839,1.567-2.691,2.4a13.954,13.954,0,0,1-2.79,2.184l-.251.146c-.773.423-1.264.251-1.745-.522a4.833,4.833,0,0,1-.522-4.18,21.5,21.5,0,0,1,.742-2.09c.042-.1.141-.193.057-.35a1.076,1.076,0,0,0-.428.35q-1.865,1.959-3.741,3.908c-1.353,1.395-2.779,2.711-4.258,3.971a4.635,4.635,0,0,0-.669.726,2.461,2.461,0,0,1-2.09.883,1.306,1.306,0,0,1-1.076-.789,5.1,5.1,0,0,1-.564-2.644,21.42,21.42,0,0,1,1.014-5.747c.068-.246.125-.486.183-.731,0,0-.031-.063-.063-.115a1.218,1.218,0,0,0-.465.413,11.682,11.682,0,0,1-3.986,2.868,5.58,5.58,0,0,1-2.257.486,2.09,2.09,0,0,1-1.844-1.118c-.073-.115-.136-.235-.2-.35a.118.118,0,0,1-.078-.047c-.24.084-.35.329-.522.522a25.429,25.429,0,0,1-3.537,3.615,6.15,6.15,0,0,1-1.369.872,1.537,1.537,0,0,1-2.194-.669,4.833,4.833,0,0,1-.684-3.735,31.344,31.344,0,0,1,1.614-5.4,6.049,6.049,0,0,0,.371-1.175c-.444.522-.883,1.045-1.332,1.567-2.038,2.341-3.986,4.765-6.066,7.069a7.038,7.038,0,0,1-1.17,1.128c-.585.413-.956.408-1.411-.167a3.553,3.553,0,0,1-.867-2.351,17.638,17.638,0,0,1,.752-4.232,44.721,44.721,0,0,1,3.621-8.751,2.612,2.612,0,0,1,.449-.674.6.6,0,0,1,.643-.162c.251.094.256.319.235.522a3.623,3.623,0,0,1-.1.632q-1.207,4.618-2.429,9.226a18.811,18.811,0,0,0-.554,3.046ZM213.079,47.6a1.332,1.332,0,0,1,.167-.277c.883-.872,1.782-1.724,2.649-2.612a53.745,53.745,0,0,0,5.407-6.463c1.2-1.693,2.309-3.443,3.344-5.224a15.909,15.909,0,0,0,1.735-3.986,6.019,6.019,0,0,0,.214-2.586c-.084-.491-.251-.585-.726-.418a3.187,3.187,0,0,0-.925.585,16.2,16.2,0,0,0-2.759,3.213,73.665,73.665,0,0,0-5.559,9.132c-1.411,2.748-2.513,5.627-3.657,8.495C212.979,47.444,213,47.465,213.079,47.6Zm-5.491,4.7a2.341,2.341,0,0,0-.888.172,11.933,11.933,0,0,0-6.625,5.3c-.172.277-.449.637-.261.9s.674.167,1.045.047a8.678,8.678,0,0,0,2.367-1.238,14.519,14.519,0,0,0,3.8-4.18,5.867,5.867,0,0,0,.559-1.019Zm26.645,4.462a1.975,1.975,0,0,0,.334-1.567,5.224,5.224,0,0,0-.329,1.546Z" transform="translate(-80.158 -7.415)" fill="#231f20"/>
    <path id="Path_74" data-name="Path 74" d="M264.663,62.22a2.612,2.612,0,0,1,.324.073c.622.225.711.575.24,1.045a7.022,7.022,0,0,0-.956,1.155,2.194,2.194,0,0,1-1.656.841c-.554.073-1.092-.935-.731-1.337.115-.125.209-.282.334-.4.261-.23.575-.408.648-.789,0-.094.115-.157.2-.193A5.506,5.506,0,0,1,264.663,62.22Z" transform="translate(-119.067 -25.477)" fill="#231f20"/>
    <path id="Path_75" data-name="Path 75" d="M143.934,38.974c-14.472,5.663-7.043,3.443-9.953,8.265-2.45,3.981-7.5,7.962-10.945,10.971-.46.308-.92.611-1.3.92s-.768.522-1.228.841l-.151.152a7.315,7.315,0,0,1-1.3.841c-.387.308-.768.522-1.228.846a7.454,7.454,0,0,1-1.045.611,7.314,7.314,0,0,1-1.682.92c-.387.23-.768.381-1.228.611-.522.152-.993.381-1.531.522-.308.073-.69.152-.92.23a5.543,5.543,0,0,1-.993.152c-.151,0-.23-.078-.387-.078a3.009,3.009,0,0,1-1.755-1.452,2.45,2.45,0,0,1-.308-1.228,2.753,2.753,0,0,1,.522-1.149,5.314,5.314,0,0,1,.46-.611c.308-.46.616-.841.919-1.223a11.557,11.557,0,0,1,.92-1,32.343,32.343,0,0,1,3.981-3.824,1.625,1.625,0,0,0,.381-.308,50.6,50.6,0,0,1,4.211-3.37,17.913,17.913,0,0,1,1.609-1.071,19.1,19.1,0,0,1,1.609-1.045c.919-.69,1.991-1.3,2.983-1.912.387-.157.69-.387,1.071-.522a3.877,3.877,0,0,0,1-.611l2.529-1.379c.522-.308.993-.522,1.531-.841.225-.078.455-.23.684-.308l.157-.152a.272.272,0,0,1-.157-.078,9.717,9.717,0,0,0-1.3-.611c-1.834-.763-12.784-2.3-14.7-7.194-.157-.387-.381-.768-.522-1.149-.078-.23-.23-.46-.3-.69a4.363,4.363,0,0,1-.261-1.123,6.469,6.469,0,0,1-.078-1.228,6.066,6.066,0,0,1,.152-1.682,11.453,11.453,0,0,1,.768-2.09,20.528,20.528,0,0,1,1.379-2.142,2.936,2.936,0,0,1,.611-.768,11.373,11.373,0,0,1,.825-1.2l.92-.919c.073-.152.23-.23.381-.381l1.912-1.912L124.014,18c.46-.381.92-.841,1.458-1.228s1.045-.841,1.6-1.3c.616-.46,1.228-.841,1.839-1.3.46-.3.841-.611,1.228-.92a4.221,4.221,0,0,1,.993-.611c.381-.308.763-.522,1.149-.841l1.149-.69c.611-.381,1.3-.69,1.912-1.071a13.023,13.023,0,0,1,1.223-.522c.308-.152.616-.23,1-.381a4.624,4.624,0,0,1,3.062,0c1.609,1-3.062,4.671-4.441,4.671a13.063,13.063,0,0,1,1-1.149l.46-.46a.073.073,0,0,0,.073-.078h-.152a5.523,5.523,0,0,0-1.364.6,4,4,0,0,0-.841.381,3.03,3.03,0,0,1-.69.381,7.894,7.894,0,0,1-1.149.611,4.54,4.54,0,0,1-.763.522,7.964,7.964,0,0,0-.846.522c-.225.152-.455.3-.763.522-.611.46-1.228.92-1.912,1.379-.522.381-1.076.841-1.609,1.3s-1.071.768-1.531,1.149l-2.09,1.839c-.381.381-.763.841-1.223,1.223a4.054,4.054,0,0,0-.768.841,6.792,6.792,0,0,1-.69.768,4.827,4.827,0,0,0-.611.69,12.924,12.924,0,0,0-.993,1.144,2.706,2.706,0,0,0-.522.768c-1.379,1.839-2.529,4.211-2.142,6.51a6.535,6.535,0,0,0,.381,1.144c2.3,4.519,8.192,3.448,14.7,6.792a6.212,6.212,0,0,0,.92.522c.157.078.23.23.387.308a.1.1,0,0,0,.152,0m-.69,1.531c-1.045.611-2.832,1.609-3.981,2.294a18.029,18.029,0,0,0-1.6,1c-.381.23-.841.46-1.223.69l-1.149.69c-.69.381-1.3.841-1.991,1.3a9.78,9.78,0,0,0-1.149.768,8.357,8.357,0,0,0-.841.611c-4.592,3.213-15.924,13.934-8.882,11.494a4.414,4.414,0,0,0,1.045-.46,17.973,17.973,0,0,0,2.147-1c.455-.225.841-.455,1.223-.684.611-.387,1.3-.768,1.839-1.149s1.149-.768,1.682-1.149,1.045-.768,1.609-1.228c.69-.522,1.379-1.144,2.09-1.761a30.824,30.824,0,0,0,2.612-2.372,24.368,24.368,0,0,0,5.13-5.663,9.075,9.075,0,0,0,1.447-3.3ZM111.929,63.314v-.073c-.152.073-.308.073-.381.152.157.078.235,0,.387,0Zm.763-.225a.282.282,0,0,1,.23-.078v-.078h-.073c-.078,0-.157.078-.23.078s-.157.078-.23.152c.078.005.157.005.3.005Zm.768.381v-.078c-.308.078-.69.23-1,.308v.073a6.917,6.917,0,0,1,1-.225Zm1.223-1.3h-.151a5.127,5.127,0,0,1-.611.3,2.09,2.09,0,0,0-.522.308h.157a9.322,9.322,0,0,1,1.071-.522Zm0,.684h-.073c-.308.157-.522.235-.841.387v.073h.073a3.752,3.752,0,0,1,.768-.381Zm2.377-1.912-.078-.078a3.438,3.438,0,0,1-.522.308c-.235.078-.308.381-.616.308a.073.073,0,0,1-.078.073l-.225.23h.073a8.958,8.958,0,0,0,1.452-.763Zm3.291-2.612c.46-.381.993-.69,1.452-1.045.522-.46,1-.841,1.531-1.3,1.761-1.531,1.531-1.531,1.3-1.3a8.413,8.413,0,0,1-.914.763c-.46.381-.846.768-1.228,1.045-.69.522-1.3,1-1.991,1.531s-1.452,1.149-2.3,1.687a6.271,6.271,0,0,0-.763.46,18.009,18.009,0,0,1-1.688.993l.078.078.078-.078a6.518,6.518,0,0,0,.763-.46,16.9,16.9,0,0,0,1.991-1.223,13.307,13.307,0,0,0,1.693-1.061Zm-3.521-30.3a.078.078,0,0,1-.078-.078,9,9,0,0,0-.46,1.149,7,7,0,0,1,.543-1Zm.763-1.452-.073-.078c-.684,1.374-.684,1.452.078.152Zm-.3-.919h.1a.078.078,0,0,0,.078-.078,5.5,5.5,0,0,1,.611-.763l.46-.69c.381-.46.768-.92,1.149-1.3a2.116,2.116,0,0,0,.381-.46c.308-.308.69-.611,1-.92a11.43,11.43,0,0,1,.914-.993,8.42,8.42,0,0,1,.919-.768,10.652,10.652,0,0,1,1-.92c.46-.46.993-.841,1.452-1.223a11.842,11.842,0,0,1,.972-.768c.46-.381.92-.763,1.452-1.149l.078-.073h-.151c-.308.23-.522.46-.846.69-.611.46-1.223.993-1.834,1.452a12.338,12.338,0,0,0-1.149,1,9.064,9.064,0,0,0-1.3,1.144c-.616.522-1.149,1.076-1.761,1.688-.46.46-.92.993-1.379,1.452l-.152.157v-.089c.23-.23.46-.522.684-.768a6.66,6.66,0,0,0,.69-.763l.768-.768a13.249,13.249,0,0,1,1.071-.993c.522-.46,1-.92,1.531-1.379.308-.308.611-.46.841-.69s.522-.46.768-.69c.23-.152.46-.381.69-.522.23-.23.46-.387.611-.522.151-.073.308-.23.46-.308-.381.235-.768.46-1.071.69a7.591,7.591,0,0,1-1.228.967.6.6,0,0,1-.3.308c-.308.225-.522.455-.841.684a12.055,12.055,0,0,1-1,.846c-.46.46-1,.92-1.452,1.374s-.69.768-1,1.076a14.785,14.785,0,0,1-1.071,1.071c-.152.23-.308.381-.46.611-.23.3-.522.69-.768.993v.157a1.63,1.63,0,0,0-.225.381.078.078,0,0,1-.078-.078l.078-.073c0-.078,0-.078.073-.157h-.073Zm.622,34.753a.078.078,0,0,0-.078.078h-.073c-.078,0-.157.073-.23.152s-.078.078-.157.078v.073c.078-.073.157-.073.157-.152.152.152.23-.078.3-.152a.078.078,0,0,0,.078-.078Zm-.152-33.917c.23-.381.455-.69.684-1.071h-.073c-.23.308-.46.69-.69,1,.068,0,.068,0,.068.073Zm2.064,24.424c0-.078.078-.078.152-.078.308-.23.522-.46.846-.69.23-.152.46-.23.69-.381.152-.152.381-.308.522-.46.078,0,.078-.078.152-.078v-.063a.073.073,0,0,0-.073.073l-.69.46-1.379.92c-.69.449-4.671,3.438-.23.3Zm-1.682-23.965a1.045,1.045,0,0,1-.23.308c.068.078.219-.23.219-.308Zm.993-1.3h-.073c-.308.381-.522.768-.846,1.149h.078a11.463,11.463,0,0,1,.831-1.144Zm-.522,34.377a.078.078,0,0,0-.078-.078h-.1c-.073.078-.073.152-.152.23v.078a.961.961,0,0,1,.308-.23Zm.522-35.37V24.58c-.073.078-.152.152-.23.23v.078h.052c0-.078.094-.157.167-.23Zm1,34.372v-.152c-.078.078-.078.078-.157.078l-.3.3-.46.23c0,.078,0,.152-.078.152h.157a5.225,5.225,0,0,0,.763-.611Zm.914-35.6h-.078c-.611.69-1.223,1.379-1.761,2.09Zm-.387-.611h-.073a3.8,3.8,0,0,1-.381.522.073.073,0,0,0,.073.073c0-.073.078-.152.152-.23s.157-.152.23-.23Zm2.68,33.687a.078.078,0,0,0,.078-.078h-.078l-.073.078c-.078-.078-.078-.078-.157,0a.4.4,0,0,0-.152.3c-.152.078-.381.157-.522.23a.408.408,0,0,0-.151.308c0,.073-.23.152-.308.23,0-.078,0-.078.078-.078v-.078h-.078l-.381.387h-.073a.11.11,0,0,1,0,.152c-.308-.078-.387.152-.46.308-.078.073-.157.152-.23.152v-.078l-.157.157c-.152.073-.23.152-.381.225v.157h.078c.23-.157.381-.308.611-.46.46-.308.92-.69,1.3-1,.23-.23.46-.381.69-.611a1.384,1.384,0,0,0,.36-.3Zm-2.68,2.9a1.108,1.108,0,0,0-.3.23h.073c.078-.073.157-.073.23-.152ZM123.5,48.545a1.118,1.118,0,0,1-.308.225c-.46.308-1,.69-1.531,1.076-.381.23-.768.522-1.228.841h.094a1.568,1.568,0,0,0,.46-.308,12.164,12.164,0,0,0,1.3-.841l.69-.46c.23-.152.381-.308.611-.46v-.073Zm-2.973-25.187v.073a1.013,1.013,0,0,1,.23-.3h-.078C120.586,23.2,120.586,23.279,120.529,23.358Zm.611-.92a1.907,1.907,0,0,1,.387-.46h-.078c-.078.152-.23.23-.381.381v.078Zm.387-.078v-.078l-.387.387h.078a1.55,1.55,0,0,0,.287-.308Zm.381,36.138h-.078c-.151.152-.381.3-.522.46v.073c.23-.152.381-.308.611-.46Zm.841-.616h-.078a2.09,2.09,0,0,0-.611.522,4.131,4.131,0,0,0,.611-.46Zm-.381-36.744h-.078c0,.073-.078.152-.152.23h.073c-.021-.078.057-.157.136-.23Zm-.078,27.94h.151c.387-.23.768-.522,1.228-.763.308-.23.69-.387.993-.616.157-.073.23-.23.387-.23s.3-.23.46-.381a4.618,4.618,0,0,0,.611-.23c.073,0,.073-.152.151-.152a1.62,1.62,0,0,0,.381-.23.569.569,0,0,1,.308-.152v-.078h.152a.272.272,0,0,0,.157-.078c.152-.073.23-.073.3-.152.308-.152.611-.381.92-.522.078-.073.152-.152.23-.152h-.23a11.015,11.015,0,0,0-.993.611,3.275,3.275,0,0,0-.522.308v.078c-.152,0-.23.073-.308.073s-.073.078-.151.078a4.179,4.179,0,0,0-.611.381c-.157.078-.23.157-.381.23-.387.23-.69.381-1.076.611-.3.23-.611.387-.914.616-.387.23-.768.455-1.149.69a.073.073,0,0,1-.115.057Zm1.531,7.889a3.715,3.715,0,0,0-.611.522h.078a3.656,3.656,0,0,0,.512-.522Zm.157-37.287h-.157l-.46.46v.078a.078.078,0,0,1,.078-.078c.151-.152.308-.23.46-.381Zm.611,35.6c0,.078,0,.078-.078.078a1.975,1.975,0,0,0-.69.69h-.073V56.2a.073.073,0,0,0,.073-.078,4.493,4.493,0,0,0,.611-.611c1.74-1.223.439-.841.136-.23Zm-.308-35.526v-.078h-.094l-.225.23v.078c.073,0,.073,0,.073-.078.073.005.152-.073.225-.146Zm.522-.522h-.094c-.078.152-.23.23-.308.387.167-.089.24-.23.4-.4Zm1.149-1.071-.078.078c-.078,0-.078.073-.157.073v.078l.078.078c0-.078.078-.157.157-.23Zm.993,35.526c-.078-.073-.078,0-.078,0-.695.6.533-.016.073-.016Zm.23-.763c0-.078.078,0,.078-.078,2.826-2.847-.005-.475-.084.063Zm.841-6.969c-.078,0-.152.078-.3.157v.073h.073c.078-.073.23-.152.308-.23Zm1.149-.92a.1.1,0,0,0,.152,0c.152-.073.23-.152.387-.225h.073c.308-.23.69-.387,1-.616.073,0,.152-.073.23-.073a.073.073,0,0,1,.073-.078h-.1c-.23,0-.308.152-.46.23a4.6,4.6,0,0,0-.841.46l-.46.23a.073.073,0,0,0-.057.057Zm1-.073c-.157.073-.387.152-.522.23a.078.078,0,0,0-.078.078h.078a3.5,3.5,0,0,1,.517-.324Zm.993-.611-.46.23a3.354,3.354,0,0,1-.522.381c.152-.078.225-.078.3-.152l.919-.46a3.056,3.056,0,0,1,.69-.387c.073-.073.073-.073.073-.152l-.073.078c-.157.073-.23.073-.381.152a.637.637,0,0,0-.23.152H131.4c-.078,0-.078,0-.152.078Zm1.045-.92c.152-.078.308-.078.46-.152,0-.078.078-.078.078-.157s-.078-.078-.078,0a1.817,1.817,0,0,0-.381.23c-.057-.016-.057-.016-.057.068Z" transform="translate(-45.625)" fill="#231f20"/>
    <path id="Path_76" data-name="Path 76" d="M190.838,41.624a.282.282,0,0,1-.23.078,1,1,0,0,1-.92-.078c-.078,0-.078-.078,0-.152.152-.157.308-.23.381-.387s.157-.3.23-.46a.348.348,0,0,0,0-.381c-.078-.152,0-.23-.152-.23h-.23l-.078-.073h.078v-.078a8.935,8.935,0,0,1-.993-.381,1.431,1.431,0,0,0-.522-.157l-.69-.23a.073.073,0,0,1-.078-.073h.078a2.685,2.685,0,0,1,.841.152h.12c-.073,0-.073-.078-.073-.078a2.126,2.126,0,0,0-1.149-.23c-.23,0-.46-.073-.69-.073a3.58,3.58,0,0,0-.381.073v.078h.726a.444.444,0,0,1,.3.078h.078a.073.073,0,0,0-.078.073c-.69-.073-1.3-.23-1.991-.3-.073,0-.073,0-.152-.078h.69c.078,0,.078-.078.151-.078-.073,0-.073-.073-.151-.073h-1.149c-.152,0-.308.073-.46.073-.3,0-.69-.073-1.071-.073h-2.832a5.674,5.674,0,0,0-1.149-.078,8.145,8.145,0,0,0-1.379-.078,9.665,9.665,0,0,1-1.452-.073h-3.135c-.841,0-1.682,0-2.612.073a7.788,7.788,0,0,0-.308.768,7.72,7.72,0,0,0-.381.841,4.576,4.576,0,0,0-.381.92.277.277,0,0,0-.078.23c-.152.381-.381.763-.522,1.149s-.308.763-.46,1.149a5.061,5.061,0,0,0-.387.993,4.9,4.9,0,0,0-.381.919,4.45,4.45,0,0,0-.381.92c-.078.073-.078.152-.157.23-.225.522-.381,1.045-.611,1.6l-.69,1.839c-.23.611-.522,1.228-.763,1.839a4.18,4.18,0,0,0-.381,1.071,10.211,10.211,0,0,0-.522,1.452c-.151.46-.381.846-.46,1.228-.308.841-.522,1.609-.841,2.372-.152.522-.381,1.045-.522,1.609a9.982,9.982,0,0,0-.522,1.379c-.23.611-.387,1.223-.616,1.761a20.564,20.564,0,0,1-.611,2.09c-.152.522-.23,1.076-.381,1.609-.078.23-.152.46-.23.763-.151.69-.308,1.458-.46,2.147,0,.073-.073.152-.073.23l-.157.152a3.656,3.656,0,0,1-.078.92V71.2c0,.387.157.69.157,1.045a.251.251,0,0,1,.151.078,7.012,7.012,0,0,1,.768-.381c.073,0,.152-.078.23-.157a.167.167,0,0,1,.152.157.444.444,0,0,1-.078.3c-.073.23-.151.46-.23.69a.679.679,0,0,1-.841.381,1.4,1.4,0,0,1-.919-.522,3.04,3.04,0,0,1-.763-1.379,4.242,4.242,0,0,1-.23-1.379,5.278,5.278,0,0,1,.073-1.045v-.611c.157-.768.308-1.531.46-2.3.23-.914.522-1.761.768-2.675.152-.522.381-1.149.522-1.687s.381-1.223.522-1.761.381-1.149.522-1.682a9.981,9.981,0,0,0,.522-1.379c.308-.69.522-1.379.768-2.09s.522-1.374.763-2.09c.157-.46.308-.846.46-1.306a4.623,4.623,0,0,1,.381-1.045,1.045,1.045,0,0,0,.157-.46c.152-.3.23-.522.381-.841a4.223,4.223,0,0,0,.23-.69c.151-.455.381-.914.522-1.374.225-.616.46-1.228.684-1.839.157-.381.308-.768.46-1.149s.387-.841.522-1.223c.078-.157.078-.387.152-.522a5.559,5.559,0,0,1,.46-2.22c.23-.381.381-.841.611-1.223-.522,0-.993.073-1.452.073l-2.612.23a.282.282,0,0,1-.157-.073c-.073-.157,0-.157.078-.157s.078,0,.152-.073h-.11l-1.991.23c-.152,0-.308.152-.522.23a5.089,5.089,0,0,0-1.076.152c-.69.078-1.452.23-2.142.308-.522.073-.993.23-1.531.3-.152,0-.23.078-.308.23a.773.773,0,0,1-.381.308,11.621,11.621,0,0,0-1.609.3,6.515,6.515,0,0,1-2.09.387c-.157,0-.308.073-.46.073-.381.078-.69.157-1.045.23a4.151,4.151,0,0,1-.919.078.277.277,0,0,1-.381-.152.4.4,0,0,0-.157-.308c0-.308-.152-.611.078-.919a5.117,5.117,0,0,0,.23-.611.157.157,0,0,1,.152-.152c.69-.157,1.379-.308,2.147-.46a16.85,16.85,0,0,0,1.682-.308c.763-.078,1.452-.23,2.22-.308.23-.073.46-.073.763-.152a2.545,2.545,0,0,1,.768-.078l1.912-.225,4.059-.46c1.379-.157,2.753-.23,4.211-.308.46,0,.92-.078,1.452-.078.078-.073.078-.23.152-.3.235-.381.522-.768.768-1.149a6.235,6.235,0,0,0,.611-.919c.078-.152.157-.23.157-.308a4.1,4.1,0,0,1,.522-.993c.078-.152.23-.308.308-.46a9.586,9.586,0,0,0,.841-1,.6.6,0,0,1,.611-.152,2.09,2.09,0,0,1,.69.078c.23.073.308.308.46.46,0,.152,0,.308-.078.381a3.8,3.8,0,0,1-.46.611c-.151.157-.23.308-.381.46a4.88,4.88,0,0,0-.611,1.045,12.184,12.184,0,0,0-.768,1.761c-.073.157-.152.308-.23.46h3.067c.841,0,1.6.078,2.45.078,1.3,0,2.523.078,3.824.078.919.073,1.839.073,2.758.152.841.078,1.6.23,2.45.3.522.078,1.071.078,1.6.157a11.984,11.984,0,0,1,1.536.381c.381.152.841.381,1.3.522a2.21,2.21,0,0,1,.914,1.149,1.045,1.045,0,0,0,.157.522,1.322,1.322,0,0,1-.475,1.17ZM158.447,66.811c0-.152.078-.23.23-.308v-.073c.078-.308.23-.611.308-.92.23-.92.522-1.917.841-2.832.152-.522.308-1.045.46-1.609a5.12,5.12,0,0,0,.23-.611,16.481,16.481,0,0,1,.611-1.839c.151-.46.308-.919.46-1.379.23-.611.46-1.223.69-1.761a23.868,23.868,0,0,1,.841-2.294,11.416,11.416,0,0,1,.381-1.228,2.67,2.67,0,0,0,.308-.69,2.67,2.67,0,0,1,.308-.69c.23-.763.522-1.452.763-2.22.152-.381.308-.763.46-1.223a3.375,3.375,0,0,0,.308-.768,3.213,3.213,0,0,0,.46-1.452c0,.078-.078.152-.078.23a2.4,2.4,0,0,0-.308.611.606.606,0,0,0-.152.381,4.241,4.241,0,0,0-.3.616c-.235.611-.522,1.3-.768,1.991-.152.381-.381.69-.522,1.071s-.23.69-.381,1.045c-.23.522-.381,1.045-.611,1.609-.152.381-.308.763-.46,1.149-.23.611-.522,1.223-.768,1.912-.152.46-.23.92-.381,1.379a6.88,6.88,0,0,1-.381.993c0,.152,0,.23-.078.308a4.758,4.758,0,0,0-.381.92,9.928,9.928,0,0,0-.381,1.452c-.078.152-.078.308-.157.381a9.454,9.454,0,0,1-.455,1.379,17.816,17.816,0,0,1-.522,1.839c-.078.3-.152.611-.23.993s-.152.69-.23,1a1.876,1.876,0,0,1-.151.611l.073.078Zm8.286-21.9h-.078c-.073.152-.152.23-.23.381a5.828,5.828,0,0,0-.3.841,13.787,13.787,0,0,0-.616,1.531c-.073.078-.073.235-.151.308-.152.381-.23.69-.381,1.071V48.9c-.078.308-.151.522-.23.768a.266.266,0,0,1-.078.225c-.151.387-.3.69-.46,1.076a4.8,4.8,0,0,0-.3.993,5.222,5.222,0,0,0-.308.768v.089c-.078.157-.152.23-.23.387-.073.3-.152.522-.23.841a5.146,5.146,0,0,1-.46.993,4.577,4.577,0,0,1-.381.92A5.513,5.513,0,0,1,161.984,57c-.073.23-.152.46-.23.69-.23.522-.381,1-.611,1.531-.152.522-.381,1.149-.522,1.687a16.524,16.524,0,0,1-.522,1.761.606.606,0,0,1-.152.381c-.157.522-.308,1.149-.46,1.682-.157.69-.381,1.458-.522,2.147a11.547,11.547,0,0,0-.3,1.6c-.078.308-.078.616-.157.841,0,.078.078.078.078.157l.078-.078c0-.152,0-.23.073-.3a10.653,10.653,0,0,1,.387-1.687c.225-.993.46-1.991.763-2.91,0-.073,0-.073.078-.152-.381,1.379-.69,2.68-1,4.059h.078c0-.157.078-.23.078-.387.152-.684.3-1.3.46-1.991.225-.611.381-1.3.611-1.912a9.049,9.049,0,0,1,.381-1.379c.152-.522.381-1.045.522-1.6.3-1,.611-1.991.914-2.91a11.3,11.3,0,0,0,.522-1.531,5.62,5.62,0,0,1,.23-.616l.23-.46a3,3,0,0,1,.308-.763l.455-1.379c.157-.381.308-.763.46-1.149s.308-.993.522-1.531a2.268,2.268,0,0,0,.3-.763c.078-.157,0-.381.078-.522a6.247,6.247,0,0,0,.23-.763,4.013,4.013,0,0,0,.308-.841c.3-.768.611-1.536.919-2.377a1.369,1.369,0,0,1,.152-.522Zm-.152-6.51-.078-.073h-1a.679.679,0,0,1-.381-.078h-.078c-.073,0-.073.078-.073.078h-.078c0-.157-.073,0-.152,0,0,0-.078,0-.078.073v-.152h-.23c-.073,0-.23.078-.3,0a12.444,12.444,0,0,1-1.687.078,1.975,1.975,0,0,0-.92.073,13.443,13.443,0,0,0-1.682.157c-.381.073-.763.073-1.149.152v.078h.078c.23,0,.46-.078.69-.078.46,0,.841.078,1.3.078a9.028,9.028,0,0,1,1.452-.078,10.057,10.057,0,0,1,1.531-.078h.69c.078,0,.23-.073.308-.073h.3a2.58,2.58,0,0,1,.768-.078h.078a1.86,1.86,0,0,1,.611-.078ZM160.9,61.069v.152l-.69,2.3c-.073.23-.152.46-.23.69h-.073c.073-.23.152-.46.23-.69.23-.768.46-1.531.763-2.372Zm.23-.611a1.087,1.087,0,0,1-.152.46,1.113,1.113,0,0,1,.152-.46Zm5.36-22.585h.763a3.8,3.8,0,0,0,1-.157.251.251,0,0,0,.078-.152,6.551,6.551,0,0,0-1.761.23A.078.078,0,0,0,166.492,37.873Zm1.285.69a.272.272,0,0,0,.078-.157,1.479,1.479,0,0,1-.522.078c-.151,0-.23.078-.381.152a3.255,3.255,0,0,1,.825-.073Zm7.429-.846h.073c0-.073,0-.073-.073-.073h-.695a.93.93,0,0,0-.455-.078h-1.379a3.569,3.569,0,0,1-.841-.073c-.157,0-.23.073-.308.073h-.46c0,.078-.073.078-.073.152h.455c.23,0,.46-.073.69.078h.23a3.657,3.657,0,0,1,.92-.078Zm13.469,1.228c-.073-.078-.073-.078-.152-.078a6.223,6.223,0,0,0-.611-.23c-.381-.073-.768-.23-1.228-.3a4.221,4.221,0,0,0-.993-.078l-1.531-.23a7.763,7.763,0,0,1-1.3-.073c-.841,0-1.687,0-2.529-.078-.69,0-1.3-.078-1.912-.078a10.056,10.056,0,0,0-1.531-.078,5.366,5.366,0,0,0-1.531,0,.078.078,0,0,0-.078.078l.078.078c.073,0,.23-.078.3,0,.387.078.69-.157,1.076,0,.3.078.522-.078.841,0h.073a9.091,9.091,0,0,0,1.458.078,3.589,3.589,0,0,1-.919.073.251.251,0,0,0-.152.078c-.078,0,0,.073,0,.073s.23.078.3,0c.23-.152.381,0,.522-.073s.3.152.46,0a.57.57,0,0,1,.381-.152,9.191,9.191,0,0,0,1.452.073l.078.078h-.078a2.968,2.968,0,0,1-.763.073.078.078,0,0,0-.078.078h.23c.152,0,.308-.078.46-.078.308,0,.611.078.919.078s.381-.078.611-.078a5.225,5.225,0,0,1,1.071,0c1,.078,1.991.23,2.988.387a16.5,16.5,0,0,1,1.912.381Z" transform="translate(-65.184 -10.962)" fill="#231f20"/>
  </g>
</svg>
