<?xml version="1.0" encoding="UTF-8"?>
<svg width="25px" height="15px" viewBox="0 0 25 15" version="1.1" xmlns="http://www.w3.org/2000/svg" xmlns:xlink="http://www.w3.org/1999/xlink">
    <title>mastercard</title>
    <g id="cart-wishlist-account" stroke="none" stroke-width="1" fill="none" fill-rule="evenodd">
        <g id="account-payment-" transform="translate(-947.000000, -397.000000)" fill-rule="nonzero">
            <g id="main-address" transform="translate(301.000000, 391.000000)">
                <g id="mastercard" transform="translate(646.000000, 6.000000)">
                    <path d="M24.4246154,7.315 C24.4246154,11.319 21.168,14.5915 17.0972308,14.5915 C13.0652308,14.5915 9.76984615,11.319 9.76984615,7.315 L9.76984615,7.315 C9.76984615,3.311 13.0264615,0.0385 17.0584615,0.0385 C21.168,0.0385 24.4246154,3.311 24.4246154,7.315 L24.4246154,7.315 Z" id="Path" fill="#FFB600"></path>
                    <path d="M17.0972308,0.0385 C21.1292308,0.0385 24.4246154,3.311 24.4246154,7.315 L24.4246154,7.315 C24.4246154,11.319 21.168,14.5915 17.0972308,14.5915 C13.0652308,14.5915 9.76984615,11.319 9.76984615,7.315" id="Path" fill="#F7981D"></path>
                    <path d="M17.0972308,0.0385 C21.1292308,0.0385 24.4246154,3.311 24.4246154,7.315 L24.4246154,7.315 C24.4246154,11.319 21.168,14.5915 17.0972308,14.5915" id="Path" fill="#FF8500"></path>
                    <path d="M7.24984615,0.0385 C3.25661538,0.077 0,3.311 0,7.315 C0,11.319 3.25661538,14.5915 7.32738462,14.5915 C9.22707692,14.5915 10.9329231,13.86 12.2510769,12.705 L12.2510769,12.705 L12.2510769,12.705 C12.5224615,12.474 12.7550769,12.2045 12.9876923,11.935 L11.4756923,11.935 C11.2818462,11.704 11.088,11.4345 10.9329231,11.2035 L13.5304615,11.2035 C13.6855385,10.9725 13.8406154,10.703 13.9569231,10.4335 L10.5064615,10.4335 C10.3901538,10.2025 10.2738462,9.933 10.1963077,9.6635 L14.2283077,9.6635 C14.4609231,8.932 14.616,8.162 14.616,7.3535 C14.616,6.8145 14.5384615,6.314 14.4609231,5.8135 L9.96369231,5.8135 C10.0024615,5.544 10.08,5.313 10.1575385,5.0435 L14.1895385,5.0435 C14.112,4.774 13.9956923,4.5045 13.8793846,4.2735 L10.4676923,4.2735 C10.584,4.004 10.7390769,3.773 10.8941538,3.5035 L13.4916923,3.5035 C13.3366154,3.234 13.1427692,2.9645 12.9101538,2.7335 L11.4756923,2.7335 C11.7083077,2.464 11.9409231,2.233 12.2123077,2.002 C10.9329231,0.8085 9.18830769,0.1155 7.28861538,0.1155 C7.28861538,0.0385 7.28861538,0.0385 7.24984615,0.0385 Z" id="Path" fill="#FF5050"></path>
                    <path d="M0,7.315 C0,11.319 3.25661538,14.5915 7.32738462,14.5915 C9.22707692,14.5915 10.9329231,13.86 12.2510769,12.705 L12.2510769,12.705 L12.2510769,12.705 C12.5224615,12.474 12.7550769,12.2045 12.9876923,11.935 L11.4756923,11.935 C11.2818462,11.704 11.088,11.4345 10.9329231,11.2035 L13.5304615,11.2035 C13.6855385,10.9725 13.8406154,10.703 13.9569231,10.4335 L10.5064615,10.4335 C10.3901538,10.2025 10.2738462,9.933 10.1963077,9.6635 L14.2283077,9.6635 C14.4609231,8.932 14.616,8.162 14.616,7.3535 C14.616,6.8145 14.5384615,6.314 14.4609231,5.8135 L9.96369231,5.8135 C10.0024615,5.544 10.08,5.313 10.1575385,5.0435 L14.1895385,5.0435 C14.112,4.774 13.9956923,4.5045 13.8793846,4.2735 L10.4676923,4.2735 C10.584,4.004 10.7390769,3.773 10.8941538,3.5035 L13.4916923,3.5035 C13.3366154,3.234 13.1427692,2.9645 12.9101538,2.7335 L11.4756923,2.7335 C11.7083077,2.464 11.9409231,2.233 12.2123077,2.002 C10.9329231,0.8085 9.18830769,0.1155 7.28861538,0.1155 L7.24984615,0.1155" id="Path" fill="#E52836"></path>
                    <path d="M7.32738462,14.5915 C9.22707692,14.5915 10.9329231,13.86 12.2510769,12.705 L12.2510769,12.705 L12.2510769,12.705 C12.5224615,12.474 12.7550769,12.2045 12.9876923,11.935 L11.4756923,11.935 C11.2818462,11.704 11.088,11.4345 10.9329231,11.2035 L13.5304615,11.2035 C13.6855385,10.9725 13.8406154,10.703 13.9569231,10.4335 L10.5064615,10.4335 C10.3901538,10.2025 10.2738462,9.933 10.1963077,9.6635 L14.2283077,9.6635 C14.4609231,8.932 14.616,8.162 14.616,7.3535 C14.616,6.8145 14.5384615,6.314 14.4609231,5.8135 L9.96369231,5.8135 C10.0024615,5.544 10.08,5.313 10.1575385,5.0435 L14.1895385,5.0435 C14.112,4.774 13.9956923,4.5045 13.8793846,4.2735 L10.4676923,4.2735 C10.584,4.004 10.7390769,3.773 10.8941538,3.5035 L13.4916923,3.5035 C13.3366154,3.234 13.1427692,2.9645 12.9101538,2.7335 L11.4756923,2.7335 C11.7083077,2.464 11.9409231,2.233 12.2123077,2.002 C10.9329231,0.8085 9.18830769,0.1155 7.28861538,0.1155 L7.24984615,0.1155" id="Path" fill="#CB2026"></path>
                    <g id="Group" transform="translate(0.678462, 5.390000)" fill="#FFFFFF">
                        <path d="M9.24646154,3.773 L9.36276923,3.1185 C9.324,3.1185 9.24646154,3.157 9.16892308,3.157 C8.89753846,3.157 8.85876923,3.003 8.89753846,2.926 L9.13015385,1.5785 L9.55661538,1.5785 L9.67292308,0.847 L9.28523077,0.847 L9.36276923,0.385 L8.58738462,0.385 C8.58738462,0.385 8.12215385,2.926 8.12215385,3.234 C8.12215385,3.696 8.39353846,3.8885 8.74246154,3.8885 C8.97507692,3.8885 9.16892308,3.8115 9.24646154,3.773 Z" id="Path"></path>
                        <path d="M9.51784615,2.541 C9.51784615,3.619 10.2544615,3.8885 10.8747692,3.8885 C11.4563077,3.8885 11.6889231,3.773 11.6889231,3.773 L11.844,3.0415 C11.844,3.0415 11.4175385,3.234 11.0298462,3.234 C10.1769231,3.234 10.332,2.618 10.332,2.618 L11.9215385,2.618 C11.9215385,2.618 12.0378462,2.1175 12.0378462,1.925 C12.0378462,1.4245 11.7664615,0.8085 10.9135385,0.8085 C10.0993846,0.7315 9.51784615,1.5785 9.51784615,2.541 Z M10.8747692,1.4245 C11.3012308,1.4245 11.2236923,1.925 11.2236923,1.9635 L10.3707692,1.9635 C10.3707692,1.925 10.4483077,1.4245 10.8747692,1.4245 Z" id="Shape"></path>
                        <path d="M15.7984615,3.773 L15.9535385,2.926 C15.9535385,2.926 15.5658462,3.1185 15.2944615,3.1185 C14.7516923,3.1185 14.5190769,2.695 14.5190769,2.233 C14.5190769,1.309 14.9843077,0.8085 15.5270769,0.8085 C15.9147692,0.8085 16.2249231,1.0395 16.2249231,1.0395 L16.3412308,0.231 C16.3412308,0.231 15.876,0.0385 15.4495385,0.0385 C14.5578462,0.0385 13.6661538,0.8085 13.6661538,2.2715 C13.6661538,3.234 14.1313846,3.8885 15.0618462,3.8885 C15.372,3.8885 15.7984615,3.773 15.7984615,3.773 Z" id="Path"></path>
                        <path d="M4.98184615,0.7315 C4.43907692,0.7315 4.05138462,0.8855 4.05138462,0.8855 L3.93507692,1.54 C3.93507692,1.54 4.284,1.386 4.788,1.386 C5.05938462,1.386 5.292,1.4245 5.292,1.6555 C5.292,1.8095 5.25323077,1.848 5.25323077,1.848 C5.25323077,1.848 5.02061538,1.848 4.90430769,1.848 C4.24523077,1.848 3.50861538,2.1175 3.50861538,3.003 C3.50861538,3.696 3.97384615,3.85 4.24523077,3.85 C4.788,3.85 5.02061538,3.5035 5.05938462,3.5035 L5.02061538,3.8115 L5.71846154,3.8115 L6.02861538,1.694 C6.02861538,0.77 5.25323077,0.7315 4.98184615,0.7315 Z M5.13692308,2.464 C5.13692308,2.5795 5.05938462,3.1955 4.59415385,3.1955 C4.36153846,3.1955 4.284,3.003 4.284,2.8875 C4.284,2.695 4.40030769,2.4255 4.98184615,2.4255 C5.09815385,2.464 5.13692308,2.464 5.13692308,2.464 Z" id="Shape"></path>
                        <path d="M6.76523077,3.85 C6.95907692,3.85 7.92830769,3.8885 7.92830769,2.849 C7.92830769,1.8865 6.99784615,2.079 6.99784615,1.694 C6.99784615,1.5015 7.15292308,1.4245 7.42430769,1.4245 C7.54061538,1.4245 7.96707692,1.463 7.96707692,1.463 L8.08338462,0.77 C8.08338462,0.77 7.812,0.693 7.34676923,0.693 C6.76523077,0.693 6.18369231,0.924 6.18369231,1.694 C6.18369231,2.5795 7.15292308,2.5025 7.15292308,2.849 C7.15292308,3.08 6.88153846,3.1185 6.68769231,3.1185 C6.33876923,3.1185 5.98984615,3.003 5.98984615,3.003 L5.87353846,3.696 C5.91230769,3.773 6.10615385,3.85 6.76523077,3.85 Z" id="Path"></path>
                        <path d="M22.2341538,0.1155 L22.0790769,1.155 C22.0790769,1.155 21.7689231,0.77 21.3424615,0.77 C20.6446154,0.77 20.0243077,1.617 20.0243077,2.618 C20.0243077,3.234 20.3344615,3.8885 20.9935385,3.8885 C21.4587692,3.8885 21.7301538,3.5805 21.7301538,3.5805 L21.6913846,3.85 L22.4667692,3.85 L23.0483077,0.154 L22.2341538,0.1155 Z M21.8852308,2.156 C21.8852308,2.5795 21.6913846,3.1185 21.2649231,3.1185 C20.9935385,3.1185 20.8384615,2.8875 20.8384615,2.5025 C20.8384615,1.8865 21.1098462,1.5015 21.4587692,1.5015 C21.7301538,1.5015 21.8852308,1.694 21.8852308,2.156 Z" id="Shape"></path>
                        <polygon id="Path" points="0.756 3.8115 1.22123077 1.0395 1.29876923 3.8115 1.84153846 3.8115 2.84953846 1.0395 2.42307692 3.8115 3.23723077 3.8115 3.85753846 0.1155 2.57815385 0.1155 1.80276923 2.387 1.764 0.1155 0.639692308 0.1155 0.0193846154 3.8115"></polygon>
                        <path d="M12.7744615,3.8115 C13.0070769,2.541 13.0458462,1.5015 13.5886154,1.694 C13.6661538,1.1935 13.7824615,1.001 13.86,0.8085 C13.86,0.8085 13.8212308,0.8085 13.7049231,0.8085 C13.356,0.8085 13.0846154,1.2705 13.0846154,1.2705 L13.1621538,0.847 L12.4255385,0.847 L11.9215385,3.85 L12.7744615,3.85 L12.7744615,3.8115 Z" id="Path"></path>
                        <path d="M17.5818462,0.7315 C17.0390769,0.7315 16.6513846,0.8855 16.6513846,0.8855 L16.5350769,1.54 C16.5350769,1.54 16.884,1.386 17.388,1.386 C17.6593846,1.386 17.892,1.4245 17.892,1.6555 C17.892,1.8095 17.8532308,1.848 17.8532308,1.848 C17.8532308,1.848 17.6206154,1.848 17.5043077,1.848 C16.8452308,1.848 16.1086154,2.1175 16.1086154,3.003 C16.1086154,3.696 16.5738462,3.85 16.8452308,3.85 C17.388,3.85 17.6206154,3.5035 17.6593846,3.5035 L17.6206154,3.8115 L18.3184615,3.8115 L18.6286154,1.694 C18.6673846,0.77 17.8532308,0.7315 17.5818462,0.7315 Z M17.7756923,2.464 C17.7756923,2.5795 17.6981538,3.1955 17.2329231,3.1955 C17.0003077,3.1955 16.9227692,3.003 16.9227692,2.8875 C16.9227692,2.695 17.0390769,2.4255 17.6206154,2.4255 C17.7369231,2.464 17.7369231,2.464 17.7756923,2.464 Z" id="Shape"></path>
                        <path d="M19.2876923,3.8115 C19.5203077,2.541 19.5590769,1.5015 20.1018462,1.694 C20.1793846,1.1935 20.2956923,1.001 20.3732308,0.8085 C20.3732308,0.8085 20.3344615,0.8085 20.2181538,0.8085 C19.8692308,0.8085 19.5978462,1.2705 19.5978462,1.2705 L19.6753846,0.847 L18.9387692,0.847 L18.4347692,3.85 L19.2876923,3.85 L19.2876923,3.8115 Z" id="Path"></path>
                    </g>
                    <g id="Group" transform="translate(0.678462, 5.390000)" fill="#DCE5E5">
                        <path d="M8.04461538,3.234 C8.04461538,3.696 8.316,3.8885 8.66492308,3.8885 C8.93630769,3.8885 9.16892308,3.8115 9.24646154,3.773 L9.36276923,3.1185 C9.324,3.1185 9.24646154,3.157 9.16892308,3.157 C8.89753846,3.157 8.85876923,3.003 8.89753846,2.926 L9.13015385,1.5785 L9.55661538,1.5785 L9.67292308,0.847 L9.28523077,0.847 L9.36276923,0.385" id="Path"></path>
                        <path d="M9.90553846,2.541 C9.90553846,3.619 10.2544615,3.8885 10.8747692,3.8885 C11.4563077,3.8885 11.6889231,3.773 11.6889231,3.773 L11.844,3.0415 C11.844,3.0415 11.4175385,3.234 11.0298462,3.234 C10.1769231,3.234 10.332,2.618 10.332,2.618 L11.9215385,2.618 C11.9215385,2.618 12.0378462,2.1175 12.0378462,1.925 C12.0378462,1.4245 11.7664615,0.8085 10.9135385,0.8085 C10.0993846,0.7315 9.90553846,1.5785 9.90553846,2.541 Z M10.8747692,1.4245 C11.3012308,1.4245 11.3787692,1.925 11.3787692,1.9635 L10.3707692,1.9635 C10.3707692,1.925 10.4483077,1.4245 10.8747692,1.4245 Z" id="Shape"></path>
                        <path d="M15.7984615,3.773 L15.9535385,2.926 C15.9535385,2.926 15.5658462,3.1185 15.2944615,3.1185 C14.7516923,3.1185 14.5190769,2.695 14.5190769,2.233 C14.5190769,1.309 14.9843077,0.8085 15.5270769,0.8085 C15.9147692,0.8085 16.2249231,1.0395 16.2249231,1.0395 L16.3412308,0.231 C16.3412308,0.231 15.876,0.0385 15.4495385,0.0385 C14.5578462,0.0385 14.0538462,0.8085 14.0538462,2.2715 C14.0538462,3.234 14.1313846,3.8885 15.0618462,3.8885 C15.372,3.8885 15.7984615,3.773 15.7984615,3.773 Z" id="Path"></path>
                        <path d="M3.93507692,1.5785 C3.93507692,1.5785 4.284,1.4245 4.788,1.4245 C5.05938462,1.4245 5.292,1.463 5.292,1.694 C5.292,1.848 5.25323077,1.8865 5.25323077,1.8865 C5.25323077,1.8865 5.02061538,1.8865 4.90430769,1.8865 C4.24523077,1.8865 3.50861538,2.156 3.50861538,3.0415 C3.50861538,3.7345 3.97384615,3.8885 4.24523077,3.8885 C4.788,3.8885 5.02061538,3.542 5.05938462,3.542 L5.02061538,3.85 L5.71846154,3.85 L6.02861538,1.7325 C6.02861538,0.847 5.25323077,0.8085 4.94307692,0.8085 M5.52461538,2.464 C5.52461538,2.5795 5.05938462,3.1955 4.59415385,3.1955 C4.36153846,3.1955 4.284,3.003 4.284,2.8875 C4.284,2.695 4.40030769,2.4255 4.98184615,2.4255 C5.09815385,2.464 5.52461538,2.464 5.52461538,2.464 Z" id="Shape"></path>
                        <path d="M5.91230769,3.773 C5.91230769,3.773 6.14492308,3.85 6.804,3.85 C6.99784615,3.85 7.96707692,3.8885 7.96707692,2.849 C7.96707692,1.8865 7.03661538,2.079 7.03661538,1.694 C7.03661538,1.5015 7.19169231,1.4245 7.46307692,1.4245 C7.57938462,1.4245 8.00584615,1.463 8.00584615,1.463 L8.12215385,0.77 C8.12215385,0.77 7.85076923,0.693 7.38553846,0.693 C6.804,0.693 6.61015385,0.924 6.61015385,1.694 C6.61015385,2.5795 7.19169231,2.5025 7.19169231,2.849 C7.19169231,3.08 6.92030769,3.1185 6.72646154,3.1185" id="Path"></path>
                        <path d="M22.0790769,1.155 C22.0790769,1.155 21.7689231,0.77 21.3424615,0.77 C20.6446154,0.77 20.412,1.617 20.412,2.618 C20.412,3.234 20.3344615,3.8885 20.9935385,3.8885 C21.4587692,3.8885 21.7301538,3.5805 21.7301538,3.5805 L21.6913846,3.85 L22.4667692,3.85 L23.0483077,0.154 M22.0403077,2.156 C22.0403077,2.5795 21.6913846,3.1185 21.2649231,3.1185 C20.9935385,3.1185 20.8384615,2.8875 20.8384615,2.5025 C20.8384615,1.8865 21.1098462,1.5015 21.4587692,1.5015 C21.7301538,1.5015 22.0403077,1.694 22.0403077,2.156 Z" id="Shape"></path>
                        <polygon id="Path" points="0.756 3.8115 1.22123077 1.0395 1.29876923 3.8115 1.84153846 3.8115 2.84953846 1.0395 2.42307692 3.8115 3.23723077 3.8115 3.85753846 0.1155 2.88830769 0.1155 1.80276923 2.387 1.764 0.1155 1.33753846 0.1155 0.0193846154 3.8115"></polygon>
                        <path d="M11.9603077,3.8115 L12.7744615,3.8115 C13.0070769,2.541 13.0458462,1.5015 13.5886154,1.694 C13.6661538,1.1935 13.7824615,1.001 13.86,0.8085 C13.86,0.8085 13.8212308,0.8085 13.7049231,0.8085 C13.356,0.8085 13.0846154,1.2705 13.0846154,1.2705 L13.1621538,0.847" id="Path"></path>
                        <path d="M16.5350769,1.5785 C16.5350769,1.5785 16.884,1.4245 17.388,1.4245 C17.6593846,1.4245 17.892,1.463 17.892,1.694 C17.892,1.848 17.8532308,1.8865 17.8532308,1.8865 C17.8532308,1.8865 17.6206154,1.8865 17.5043077,1.8865 C16.8452308,1.8865 16.1086154,2.156 16.1086154,3.0415 C16.1086154,3.7345 16.5738462,3.8885 16.8452308,3.8885 C17.388,3.8885 17.6206154,3.542 17.6593846,3.542 L17.6206154,3.85 L18.3184615,3.85 L18.6286154,1.7325 C18.6286154,0.847 17.8532308,0.8085 17.5430769,0.8085 M18.1246154,2.464 C18.1246154,2.5795 17.6593846,3.1955 17.1941538,3.1955 C16.9615385,3.1955 16.884,3.003 16.884,2.8875 C16.884,2.695 17.0003077,2.4255 17.5818462,2.4255 C17.7369231,2.464 18.1246154,2.464 18.1246154,2.464 Z" id="Shape"></path>
                        <path d="M18.4735385,3.8115 L19.2876923,3.8115 C19.5203077,2.541 19.5590769,1.5015 20.1018462,1.694 C20.1793846,1.1935 20.2956923,1.001 20.3732308,0.8085 C20.3732308,0.8085 20.3344615,0.8085 20.2181538,0.8085 C19.8692308,0.8085 19.5978462,1.2705 19.5978462,1.2705 L19.6753846,0.847" id="Path"></path>
                    </g>
                </g>
            </g>
        </g>
    </g>
</svg>