<svg xmlns="http://www.w3.org/2000/svg" xmlns:xlink="http://www.w3.org/1999/xlink" width="128" height="106.47" viewBox="0 0 128 106.47"><defs><style>.cls-1{fill:url(#linear-gradient);}.cls-2{fill:url(#linear-gradient-2);}.cls-3{fill:url(#linear-gradient-3);}.cls-4{fill:url(#linear-gradient-4);}.cls-5{fill:url(#linear-gradient-5);}</style><linearGradient id="linear-gradient" x1="127.58" y1="106.71" x2="51.71" y2="-24.71" gradientUnits="userSpaceOnUse"><stop offset="0" stop-color="#006d69"/><stop offset="0.67" stop-color="#28a8b3"/><stop offset="1" stop-color="#39c1d2"/></linearGradient><linearGradient id="linear-gradient-2" x1="119.64" y1="101.23" x2="94.91" y2="58.41" xlink:href="#linear-gradient"/><linearGradient id="linear-gradient-3" x1="32.68" y1="102.35" x2="5.76" y2="55.71" xlink:href="#linear-gradient"/><linearGradient id="linear-gradient-4" x1="104.2" y1="28.08" x2="93.47" y2="9.5" xlink:href="#linear-gradient"/><linearGradient id="linear-gradient-5" x1="36.04" y1="94" x2="-9.95" y2="14.35" xlink:href="#linear-gradient"/></defs><title>m128</title><g id="Layer_2" data-name="Layer 2"><g id="Layer_1-2" data-name="Layer 1"><polygon class="cls-1" points="128 8.6 128 106.47 118.32 106.47 118.32 31.9 79.55 68.86 8.92 0 23.39 0 79.74 54.77 128 8.6"/><polygon class="cls-2" points="101.77 58.29 110.57 49.36 110.58 106.47 101.77 106.47 101.77 58.29"/><polygon class="cls-3" points="25.55 58.29 16.75 49.36 16.75 106.47 25.55 106.47 25.55 58.29"/><polygon class="cls-4" points="109.65 0.16 122.25 0 80.47 41.78 74.25 35.56 109.65 0.16"/><polygon class="cls-5" points="8.93 106.47 0 106.47 0 8.6 68.46 75.28 55.03 75.28 8.59 32.11 8.93 106.47"/></g></g></svg>