<?xml version="1.0" encoding="utf-8"?>
<!-- Generator: Adobe Illustrator 24.3.0, SVG Export Plug-In . SVG Version: 6.00 Build 0)  -->
<svg version="1.1" id="Layer_1" xmlns="http://www.w3.org/2000/svg" xmlns:xlink="http://www.w3.org/1999/xlink" x="0px" y="0px"
	 viewBox="0 0 34.3 15" style="enable-background:new 0 0 34.3 15;" xml:space="preserve">
<style type="text/css">
	.st0{fill:#3C58BF;}
	.st1{fill:#293688;}
	.st2{fill:#FFBC00;}
	.st3{fill:#F7981D;}
	.st4{fill:#ED7C00;}
	.st5{fill:#051244;}
</style>
<g id="cart-wishlist-account">
	<g id="account-payment-" transform="translate(-937.000000, -562.000000)">
		<g id="main-address-copy" transform="translate(301.000000, 554.000000)">
			<g id="visa" transform="translate(636.000000, 8.000000)">
				<polygon id="Path" class="st0" points="12.6,12.5 14.3,2.5 17,2.5 15.4,12.5 				"/>
				<polygon id="Path_1_" class="st1" points="12.6,12.5 14.8,2.5 17,2.5 15.4,12.5 				"/>
				<path id="Path_2_" class="st0" d="M25.2,2.6c-0.5-0.2-1.4-0.4-2.5-0.4C20,2.2,18,3.6,18,5.6c0,1.5,1.4,2.3,2.5,2.8
					c1.1,0.5,1.4,0.8,1.4,1.3c0,0.7-0.9,1-1.6,1c-1.1,0-1.7-0.2-2.6-0.6l-0.4-0.2l-0.4,2.3c0.7,0.3,1.9,0.6,3.1,0.6
					c2.9,0,4.8-1.4,4.8-3.5c0-1.2-0.7-2.1-2.3-2.8c-1-0.5-1.6-0.8-1.6-1.3c0-0.4,0.5-0.9,1.6-0.9c0.9,0,1.6,0.2,2.1,0.4l0.3,0.1
					L25.2,2.6L25.2,2.6z"/>
				<path id="Path_3_" class="st1" d="M25.2,2.6c-0.5-0.2-1.4-0.4-2.5-0.4c-2.7,0-4.2,1.4-4.2,3.4c0,1.5,0.9,2.3,2,2.8
					c1.1,0.5,1.4,0.8,1.4,1.3c0,0.7-0.9,1-1.6,1c-1.1,0-1.7-0.2-2.6-0.6l-0.4-0.2l-0.4,2.3c0.7,0.3,1.9,0.6,3.1,0.6
					c2.9,0,4.8-1.4,4.8-3.5c0-1.2-0.7-2.1-2.3-2.8c-1-0.5-1.6-0.8-1.6-1.3c0-0.4,0.5-0.9,1.6-0.9c0.9,0,1.6,0.2,2.1,0.4l0.3,0.1
					L25.2,2.6L25.2,2.6z"/>
				<path id="Shape" class="st0" d="M29.9,2.5c-0.7,0-1.1,0.1-1.4,0.7l-4.1,9.3h2.9l0.5-1.7h3.5l0.3,1.7h2.6L32,2.5H29.9z M28.6,9.2
					c0.2-0.5,1.1-2.9,1.1-2.9s0.2-0.6,0.4-1l0.2,0.9c0,0,0.5,2.5,0.7,3.1L28.6,9.2L28.6,9.2z"/>
				<path id="Shape_1_" class="st1" d="M30.5,2.5c-0.7,0-1.1,0.1-1.4,0.7l-4.7,9.3h2.9l0.5-1.7h3.5l0.3,1.7h2.6L32,2.5H30.5z
					 M28.6,9.2c0.2-0.6,1.1-2.9,1.1-2.9s0.2-0.6,0.4-1l0.2,0.9c0,0,0.5,2.5,0.7,3.1L28.6,9.2L28.6,9.2z"/>
				<path id="Path_4_" class="st0" d="M7.6,9.5L7.3,8.1C6.8,6.4,5.2,4.6,3.5,3.7l2.5,8.9h2.9l4.4-10h-2.9L7.6,9.5z"/>
				<path id="Path_5_" class="st1" d="M7.6,9.5L7.3,8.1C6.8,6.4,5.2,4.6,3.5,3.7l2.5,8.9h2.9l4.4-10h-2.4L7.6,9.5z"/>
				<path id="Path_6_" class="st2" d="M0,2.5l0.5,0.1C4,3.5,6.4,5.6,7.3,8.1l-1-4.7C6.2,2.7,5.7,2.5,5.1,2.5H0L0,2.5z"/>
				<path id="Path_7_" class="st3" d="M0,2.5L0,2.5c3.5,0.8,6.4,3,7.3,5.5L6.4,4.1C6.2,3.4,5.7,3,5.1,3L0,2.5z"/>
				<path id="Path_8_" class="st4" d="M0,2.5L0,2.5c3.5,0.8,6.4,3,7.3,5.5L6.6,5.9C6.5,5.2,6.3,4.5,5.5,4.3L0,2.5z"/>
				<g id="Group" transform="translate(3.538889, 1.457750)">
					<path id="Path_9_" class="st5" d="M6.8,7.7L4.9,5.8L4,8L3.8,6.6C3.3,4.9,1.7,3.1,0,2.2l2.5,8.9h2.9L6.8,7.7z"/>
					<polygon id="Path_10_" class="st5" points="11.8,11.1 9.5,8.6 9,11.1 					"/>
					<path id="Path_11_" class="st5" d="M18.1,7.6L18.1,7.6c0.2,0.2,0.3,0.4,0.3,0.6c0,0.7-0.9,1-1.6,1c-1.1,0-1.7-0.2-2.6-0.6
						l-0.4-0.2l-0.4,2.3c0.7,0.3,1.9,0.6,3.1,0.6c1.7,0,3.2-0.5,4-1.4L18.1,7.6z"/>
					<path id="Path_12_" class="st5" d="M21.2,11.1h2.6l0.5-1.7h3.5l0.3,1.7h2.6L29.8,7l-3.3-3.2l0.2,0.9c0,0,0.5,2.5,0.7,3.1h-2.3
						c0.2-0.6,1.1-2.9,1.1-2.9s0.2-0.6,0.4-1"/>
				</g>
			</g>
		</g>
	</g>
</g>
</svg>
